<svg xmlns="http://www.w3.org/2000/svg" viewBox="0 0 463 446"><defs><style>.cls-1{fill:#fff;}</style></defs><title>Klogo</title><g id="Layer_1" data-name="Layer 1"><path d="M49.55,414.5a4.05,4.05,0,0,1-4-4V28a4,4,0,0,1,4.08-4.06,3.93,3.93,0,0,1,2.83,1.19L434.88,407.59A4,4,0,0,1,432,414.5Z"/><path d="M49.58,24.42a3.44,3.44,0,0,1,2.48,1L434.53,407.94A3.55,3.55,0,0,1,432,414H49.55A3.55,3.55,0,0,1,46,410.45V28a3.53,3.53,0,0,1,3.58-3.56m0-1A4.54,4.54,0,0,0,45,28V410.45A4.55,4.55,0,0,0,49.55,415H432a4.55,4.55,0,0,0,3.22-7.76L52.76,24.76a4.45,4.45,0,0,0-3.18-1.34Z"/><path d="M265.38,213a5.76,5.76,0,0,1-4.1-1.7l-166-166a5.79,5.79,0,0,1,4.1-9.89H431.33a5.79,5.79,0,0,1,4.1,9.89l-166,166A5.75,5.75,0,0,1,265.38,213Z"/><path d="M431.33,36a5.29,5.29,0,0,1,3.74,9l-166,166a5.29,5.29,0,0,1-7.49,0L95.68,45a5.29,5.29,0,0,1,3.74-9H431.33m0-1H99.42A6.29,6.29,0,0,0,95,45.7l166,166a6.29,6.29,0,0,0,8.9,0l166-166A6.29,6.29,0,0,0,431.33,35Z"/></g><g id="Layer_3" data-name="Layer 3"><path class="cls-1" d="M341.44,177.67l-.07-2.51a90.73,90.73,0,0,0-3.5-19.68,137.5,137.5,0,0,0-16.8-36.15A147.75,147.75,0,0,0,295.16,89c-10-8.82-21.43-16.24-34.1-20.73l-2.38-.83-2.42-.7L253.84,66l-2.46-.54c-.82-.17-1.64-.37-2.46-.52l-2.46-.42-4.92-.85c-3.28-.55-6.58-1-9.87-1.49s-6.6-.88-9.92-1.16c-6.63-.7-13.29-1.12-20-1.15-1.67,0-3.35,0-5,.06s-3.35.12-5,.29-3.35.31-5,.55c-.84.13-1.68.25-2.51.43a23.66,23.66,0,0,0-2.58.63l-6.47,2,6.82.34a145.71,145.71,0,0,1,30,4.55,118.18,118.18,0,0,1,28,11.42c1.09.64,2.21,1.22,3.28,1.9l3.19,2.05,1.59,1,1.53,1.11,3.07,2.22a115.54,115.54,0,0,1,11.38,10,120,120,0,0,1,18.48,23.93,140.38,140.38,0,0,1,6.9,13.49,134.19,134.19,0,0,1,5.24,14.21,109.86,109.86,0,0,1,3.44,14.71,75,75,0,0,1,1.06,14.93,57.69,57.69,0,0,1-8.86,28.06,73.67,73.67,0,0,1-9.15,11.8q-2.58,2.72-5.4,5.18c-.95.81-1.9,1.62-2.88,2.37-.49.38-1,.76-1.48,1.12l-.75.54-.37.26-.18.12-.09.06a2.94,2.94,0,0,0-.41.34L271,231l1.44,1.41-.22.19.1-.07.14-.1,34.43,33.69.11.11.11-.11a76.41,76.41,0,0,0,6.71-7.39c1.07-1.27,2.06-2.61,3.05-3.94s1.93-2.7,2.87-4.07c.46-.69.94-1.37,1.4-2.07l1.3-2.12c.86-1.42,1.78-2.81,2.54-4.29l2.39-4.38,2.15-4.5c.35-.75.72-1.5,1.06-2.26l.94-2.31,1.88-4.62,1.59-4.73c.52-1.58,1.1-3.14,1.48-4.77l1.27-4.83c.2-.81.46-1.6.6-2.42l.46-2.45.93-4.91.23-1.23.14-1.24.29-2.48.57-5a24.07,24.07,0,0,0,.17-2.49l.1-2.5.2-5,0-1.25Zm-1,2.49-.17,5-.08,2.48a23.78,23.78,0,0,1-.15,2.47l-.54,4.93-.27,2.47-.13,1.23-.22,1.22-.89,4.88-.45,2.44c-.14.82-.39,1.61-.58,2.41l-1.23,4.81c-.36,1.62-.93,3.17-1.44,4.75l-1.55,4.72-1.84,4.61-.92,2.31c-.33.76-.7,1.5-1,2.25l-2.11,4.5L324.53,242c-.75,1.48-1.66,2.87-2.5,4.29l-1.29,2.13c-.45.7-.92,1.38-1.38,2.07-.93,1.37-1.83,2.76-2.84,4.08s-2,2.67-3,3.95a76.36,76.36,0,0,1-6.51,7.28l-34.53-33.35.06,0,.41-.29.81-.59c.53-.39,1.06-.8,1.57-1.21,1-.81,2-1.67,3-2.53q3-2.61,5.64-5.48a77.52,77.52,0,0,0,9.56-12.48,61.41,61.41,0,0,0,9.22-29.91,78.43,78.43,0,0,0-1.21-15.64,113.3,113.3,0,0,0-3.64-15.14,137.51,137.51,0,0,0-5.47-14.55,143.59,143.59,0,0,0-7.16-13.79,123.09,123.09,0,0,0-19.11-24.42,118.48,118.48,0,0,0-11.74-10.18l-3.16-2.26-1.58-1.13-1.64-1-3.28-2.08c-1.1-.69-2.25-1.28-3.37-1.93a120.89,120.89,0,0,0-28.75-11.49,142.53,142.53,0,0,0-20.49-3.67c1.55-.15,3.11-.19,4.66-.29s3.29-.1,4.94-.09c6.59,0,13.19.36,19.77,1,3.29.26,6.57.73,9.86,1.09s6.56.89,9.83,1.42l4.9.81,2.45.41c.81.15,1.6.33,2.41.5l2.4.51,2.37.65,2.37.66,2.33.8c12.42,4.3,23.73,11.52,33.65,20.17a146.27,146.27,0,0,1,25.84,29.87,136.28,136.28,0,0,1,16.88,35.71,89.7,89.7,0,0,1,3.59,19.42l.08,2.47,0,1.23Z"/><path class="cls-1" d="M258.91,366.83c-.13-.64-.36-1.24-.55-1.86s-.38-1.23-.62-1.83c-.45-1.21-.89-2.41-1.39-3.59s-1-2.37-1.51-3.54c-2.09-4.68-4.38-9.26-6.83-13.76s-5-8.92-7.92-13.17L239,327.49l-1.15-1.55c-.74-1-1.6-2-2.42-3-1.7-1.91-3.39-3.82-5.12-5.71a75.9,75.9,0,0,0-5.49-5.41,44.35,44.35,0,0,0-6.23-4.55,43.65,43.65,0,0,0-14.39-5.39l-1.89-.37-1.91-.25-1.91-.25c-.64-.06-1.28-.09-1.92-.14a48.8,48.8,0,0,0-7.7,0,73.15,73.15,0,0,1-7.62.25,9.12,9.12,0,0,1-1.83-.29,2.3,2.3,0,0,1-1.41-.93,13,13,0,0,1-1.57-3.38,17.22,17.22,0,0,0-1.54-3.58,2.41,2.41,0,0,0-1.72-1.19c-.72,0-1.3.07-2,.1-2.55.19-5.1.39-7.65.78-.32.05-.64.11-1,.19a4.9,4.9,0,0,0-.49.14,1.59,1.59,0,0,0-.26.12.72.72,0,0,0-.16.12.38.38,0,0,0-.09.37.55.55,0,0,0,.32.3l.26.09c.17.05.33.09.49.12.32.06.64.11,1,.16a26.81,26.81,0,0,1,3.73.69,13.14,13.14,0,0,1,3.46,1.44,12.7,12.7,0,0,1,2.83,2.45,24.47,24.47,0,0,0,2.69,2.79,6.73,6.73,0,0,0,3.78,1c2.59,0,5.12-.39,7.66-.52a36.86,36.86,0,0,1,3.81-.07c1.27,0,2.53.2,3.81.32,2.55.23,5.1.38,7.62.76a35.14,35.14,0,0,1,14.3,5.08A36.74,36.74,0,0,1,228,319a36.8,36.8,0,0,0-10.58-11,35.32,35.32,0,0,0-14.33-5.22c-2.53-.39-5.09-.57-7.63-.82-1.26-.13-2.54-.32-3.83-.35a37.21,37.21,0,0,0-3.85,0c-2.56.12-5.11.51-7.63.46a6.32,6.32,0,0,1-3.53-.93,24.75,24.75,0,0,1-2.6-2.74,12.9,12.9,0,0,0-2.93-2.56,13.65,13.65,0,0,0-3.59-1.51,27.32,27.32,0,0,0-3.8-.72c-.31,0-.62-.09-.93-.15l-.44-.11h0l.4-.11c.3-.07.61-.13.92-.18,2.51-.38,5.06-.56,7.6-.75.62,0,1.31-.11,1.87-.1a1.86,1.86,0,0,1,1.29,1,16.89,16.89,0,0,1,1.47,3.45,13.39,13.39,0,0,0,1.65,3.55,3.74,3.74,0,0,0,.75.73,3,3,0,0,0,1,.41,9.71,9.71,0,0,0,1.95.31,73.29,73.29,0,0,0,7.7-.23,48.17,48.17,0,0,1,7.62,0c.63,0,1.27.08,1.9.14l1.89.25,1.89.25,1.87.37a43,43,0,0,1,14.16,5.34,43.63,43.63,0,0,1,6.12,4.5,75.17,75.17,0,0,1,5.42,5.36c1.71,1.88,3.41,3.8,5.1,5.72.81,1,1.64,1.93,2.37,3l1.13,1.53,1.07,1.58c2.84,4.22,5.41,8.64,7.84,13.12s4.7,9.06,6.76,13.72c.52,1.16,1,2.33,1.49,3.52s.93,2.37,1.37,3.56c.23.59.41,1.2.6,1.8s.41,1.2.53,1.81a15.37,15.37,0,0,1,.39,1.82l.1.9,0,.22,0,.19a1.49,1.49,0,0,1-.07.37,2.61,2.61,0,0,1-.6.89c-1.11-3.62-7.89-24.69-18.83-37.45,0,0,13,18,16,39h0c-3-20-15-35-15-35a81.76,81.76,0,0,1,10,23.38C245.69,348,240,341,240,341c6.09,7.91,8.84,18.42,10.28,25.43-2-6.3-5.18-15.38-9.28-22.43,0,0,8.05,17.27,9.82,28.22-1-3.63-3.68-12.52-6.82-17.22,0,0,5,12,6,19l0,0-1.14.12A58.49,58.49,0,0,0,239,350s9.32,16.78,9.06,24.24q-1.58.12-3.16.15c-.07-1.35-.63-6.4-4.9-12.39,0,0,3.73,8.09,4,12.39h-.1A36.32,36.32,0,0,0,238,362s3.71,8,4,12.36h-.11A36.35,36.35,0,0,0,236,362s3.65,7.93,4,12.26h-.13A36.45,36.45,0,0,0,234,362s3.56,7.73,4,12.1h-.07c-.28-1.55-1.28-5-4.89-10.09,0,0,2.56,5.7,2.95,9.85a30.55,30.55,0,0,1-6.18-1.43,11.88,11.88,0,0,1-1.66-.76c-.27-.14-.49-.33-.74-.49s-.45-.37-.56-.59a1.89,1.89,0,0,1-.31-.66l-.18-1c-.13-.64-.28-1.27-.47-1.9a10.78,10.78,0,0,0-1.75-3.58A9.8,9.8,0,0,0,221,360.9a21,21,0,0,0-3.6-1.6,3.41,3.41,0,0,0-1.09-.17,1.47,1.47,0,0,0-.68.18,1.13,1.13,0,0,0-.48.65,2.33,2.33,0,0,0,.06,1.19,7.78,7.78,0,0,0,.35,1,26,26,0,0,0,1.91,3.41l1.06,1.61a3.14,3.14,0,0,1,.4.73c.06.24.05.3-.05.4a3.3,3.3,0,0,1-1.55.38l-.42,0c0-.75-.4-4.81-4.91-9.67,0,0,3.86,6.44,4,9.7h-.07A25,25,0,0,0,210,359s3.84,6.41,4,9.68h-.07A25.08,25.08,0,0,0,208,359s3.81,6.35,4,9.63h-.08A25.18,25.18,0,0,0,206,359s3.78,6.31,4,9.6h0c-.17-1-1-3.8-5-8.06,0,0,2.81,4.81,3,8-1.34,0-2.68,0-4-.05a23.13,23.13,0,0,1-7.38-1.19,6.51,6.51,0,0,1-2.86-2.11,7.74,7.74,0,0,1-1.33-3.35,17,17,0,0,0-1.1-3.76,11.65,11.65,0,0,0-.93-1.76,6.41,6.41,0,0,0-.63-.81,1.89,1.89,0,0,0-1-.63.87.87,0,0,0-.77.27,1.46,1.46,0,0,0-.33.57,4.2,4.2,0,0,0-.16,1.05,12,12,0,0,0,.12,2,31.25,31.25,0,0,1,.33,3.77,18.09,18.09,0,0,1-.27,3.74,11.72,11.72,0,0,1-1.15,3.52,11.38,11.38,0,0,1-1,1.57,10.77,10.77,0,0,1-1.27,1.33,11.56,11.56,0,0,1-3.13,2,23.17,23.17,0,0,1-7.34,1.5,9,9,0,0,1-3.62-.48,3,3,0,0,1-1.35-1,2.8,2.8,0,0,1-.45-1.62,7.41,7.41,0,0,0-.21-2,3.26,3.26,0,0,0-1.11-1.79,3.19,3.19,0,0,0-2-.63,2.15,2.15,0,0,0-.58.07.79.79,0,0,0-.55.58,1.9,1.9,0,0,0,.29,1.13c.31.59.66,1.12.93,1.67a2.45,2.45,0,0,1,.36,1.59c-.12.45-.64.74-1.21.89a4.25,4.25,0,0,1-1.77.09,22.3,22.3,0,0,1-7-2.79,72.53,72.53,0,0,1-6.42-4.12A98.71,98.71,0,0,1,137.4,358a26,26,0,0,1-7.28-13.05,13.09,13.09,0,0,1,.42-7.4c.06-.14.1-.29.17-.43l.23-.4a8.52,8.52,0,0,1,.48-.79,6.84,6.84,0,0,1,1.28-1.32,18.19,18.19,0,0,1,3.22-2,24.78,24.78,0,0,1,7.19-2.35,14.53,14.53,0,0,1,7.45.56,5.42,5.42,0,0,1,.86.39,4.91,4.91,0,0,1,.81.47,5.39,5.39,0,0,1,1.41,1.2,5.2,5.2,0,0,1,1,3.51,18.35,18.35,0,0,1-2.38,7.16c-.59,1.13-1.25,2.22-1.93,3.3s-1.46,2.09-2,3.26a4.86,4.86,0,0,0-.5,1.87,1.5,1.5,0,0,0,.06.5.48.48,0,0,0,.36.39c.43,0,.59-.38.77-.63.59-1.15,1.06-2.33,1.63-3.48s1.12-2.29,1.75-3.4a12.12,12.12,0,0,1,2.26-3.06,1.48,1.48,0,0,1,.83-.39.84.84,0,0,1,.75.47,4.91,4.91,0,0,1,.57,1.81A26.54,26.54,0,0,1,157,348a26.55,26.55,0,0,0-.22-3.82,4.94,4.94,0,0,0-.56-1.83.89.89,0,0,0-.79-.49,1.54,1.54,0,0,0-.87.4,12.18,12.18,0,0,0-2.3,3.06c-.64,1.11-1.23,2.25-1.78,3.4s-1.07,2.33-1.65,3.45c-.15.25-.37.56-.61.55s-.28-.45-.27-.73a4.7,4.7,0,0,1,.5-1.8c.56-1.13,1.37-2.14,2-3.23s1.36-2.17,2-3.3a18.59,18.59,0,0,0,2.47-7.26,5.51,5.51,0,0,0-1-3.73,5.72,5.72,0,0,0-1.48-1.29,5.19,5.19,0,0,0-.84-.49,5.71,5.71,0,0,0-.89-.41,14.91,14.91,0,0,0-7.65-.64,25.24,25.24,0,0,0-7.34,2.34,17.93,17.93,0,0,0-3.32,2,7.34,7.34,0,0,0-1.38,1.42,9,9,0,0,0-.51.84l-.25.43c-.07.15-.12.31-.18.46a13.61,13.61,0,0,0-.47,7.69,26.5,26.5,0,0,0,7.4,13.36,99.3,99.3,0,0,0,11.77,9.88,73.16,73.16,0,0,0,6.47,4.18,22.82,22.82,0,0,0,7.19,2.89,4.94,4.94,0,0,0,2-.1,3.21,3.21,0,0,0,1-.42,1.66,1.66,0,0,0,.71-.93,3,3,0,0,0-.4-2.08c-.29-.59-.65-1.14-.93-1.68a1.53,1.53,0,0,1-.23-.68s0,0,.08-.06a1.58,1.58,0,0,1,.37,0,2.51,2.51,0,0,1,1.59.49c.89.69,1.06,2,1,3.23a3.52,3.52,0,0,0,.56,2,3.66,3.66,0,0,0,1.66,1.27,9.66,9.66,0,0,0,3.92.54,25.35,25.35,0,0,0,3.86-.46c.64-.09,1.27-.3,1.9-.44s1.24-.43,1.85-.64a11.19,11.19,0,0,0,5.76-5.2,12.48,12.48,0,0,0,1.24-3.73,18.86,18.86,0,0,0,.29-3.89,32,32,0,0,0-.33-3.86,11.26,11.26,0,0,1-.11-1.84,3.47,3.47,0,0,1,.12-.84.7.7,0,0,1,.13-.26s0,0,.09,0a1.23,1.23,0,0,1,.55.39,5.64,5.64,0,0,1,.54.7,10.87,10.87,0,0,1,.85,1.63,16.21,16.21,0,0,1,1,3.58,8.57,8.57,0,0,0,1.47,3.71,7.36,7.36,0,0,0,3.21,2.4,23.86,23.86,0,0,0,7.67,1.28c2.58.08,5.12,0,7.67.13,1.28,0,2.55.08,3.84.09.64,0,1.29,0,2-.05a7.41,7.41,0,0,0,1-.13,2.39,2.39,0,0,0,1.08-.47,1.11,1.11,0,0,0,.38-.67,1.49,1.49,0,0,0-.06-.69,3.94,3.94,0,0,0-.5-1l-1-1.6a25.25,25.25,0,0,1-1.83-3.28,3.1,3.1,0,0,1-.36-1.53c0-.07,0-.08.06-.11a.62.62,0,0,1,.24,0,2.55,2.55,0,0,1,.79.13,20.37,20.37,0,0,1,3.39,1.52,8.84,8.84,0,0,1,2.76,2.33,9.81,9.81,0,0,1,1.58,3.27c.18.59.32,1.2.44,1.82l.17.93a2.84,2.84,0,0,0,.48,1.07,4.25,4.25,0,0,0,.75.79c.29.19.56.41.86.57a12.84,12.84,0,0,0,1.81.84A33.88,33.88,0,0,0,237,375a60.61,60.61,0,0,0,7.72.36,45.21,45.21,0,0,0,7.71-.73,20,20,0,0,0,3.77-1.08l.91-.43c.29-.18.59-.35.86-.56a3.8,3.8,0,0,0,1.33-1.7,4.87,4.87,0,0,0,0-2.1A16.17,16.17,0,0,0,258.91,366.83Z"/><path class="cls-1" d="M156.74,297.08a21.22,21.22,0,0,1,1-1.89,17.17,17.17,0,0,1,2.56-3.43,5.69,5.69,0,0,0,1.43-4,2.75,2.75,0,0,0-.84-2,3.15,3.15,0,0,0-2-.88,3,3,0,0,0-2,.86,7.55,7.55,0,0,0-1.35,1.72,34.5,34.5,0,0,0-1.93,3.86,72.39,72.39,0,0,0-3,8.09,35.5,35.5,0,0,0-1,4.21,7.27,7.27,0,0,0,0,2.23,3.59,3.59,0,0,0,.33,1.11,1.84,1.84,0,0,0,.86.91,1.4,1.4,0,0,0,1.32-.06,2.45,2.45,0,0,0,.85-.88,8.18,8.18,0,0,0,.47-1,4.52,4.52,0,0,1,.49-.86,14.93,14.93,0,0,1,3.07-2.83c1.14-.85,2.33-1.63,3.51-2.46a15.91,15.91,0,0,0,1.73-1.37,8.35,8.35,0,0,0,1.45-1.74,2.35,2.35,0,0,0,.24-.63,1.12,1.12,0,0,0-.16-.86,1.76,1.76,0,0,0-1.29-.58,5,5,0,0,0-2.33.31,12.42,12.42,0,0,0-3.49,2.77l.35.35.35.35a11.8,11.8,0,0,1,3.14-2.61,4.12,4.12,0,0,1,1.89-.27,1.11,1.11,0,0,1,.65.19s0,.27-.13.54a7.64,7.64,0,0,1-1.27,1.56,15.23,15.23,0,0,1-1.62,1.32c-1.15.84-2.34,1.64-3.49,2.52a15.54,15.54,0,0,0-3.18,3,5.18,5.18,0,0,0-.56,1l-.2.5a2,2,0,0,1-.21.44c-.3.56-.87,1-1.34.72s-.76-.92-.87-1.55a6.71,6.71,0,0,1,0-2.05,35.14,35.14,0,0,1,1-4.15,72,72,0,0,1,2.82-8.08,34.21,34.21,0,0,1,1.86-3.85,7.26,7.26,0,0,1,1.27-1.67,2.69,2.69,0,0,1,1.83-.82,2.92,2.92,0,0,1,1.86.79,2.55,2.55,0,0,1,.8,1.85,5.53,5.53,0,0,1-1.34,3.91,17.27,17.27,0,0,0-2.52,3.48,21.25,21.25,0,0,0-1,1.91,5.58,5.58,0,0,0-.36,1,.52.52,0,0,0,0,.27c0,.11.17,0,.24,0A2.52,2.52,0,0,0,157,298a2.52,2.52,0,0,1-.41.34c-.07,0-.19.1-.22,0a.52.52,0,0,1,0-.26A5.56,5.56,0,0,1,156.74,297.08Z"/><path class="cls-1" d="M146.11,288c.24,0,.48,0,.72,0a2.88,2.88,0,0,0,1.38-.41,1.08,1.08,0,0,0,.43-.57,1.51,1.51,0,0,0,0-.72A4.41,4.41,0,0,0,148,285l-1.47-2.41-.18-.13a3.12,3.12,0,0,0-3.21-.08,5.21,5.21,0,0,0-1.27.94,3.31,3.31,0,0,0-.87,1.41,5.69,5.69,0,0,0,.35,3.06,4,4,0,0,1,.19,1.27,2.64,2.64,0,0,1-.51,1.09,28.13,28.13,0,0,1-1.81,2.18,38.85,38.85,0,0,0-3.61,4.57,17.56,17.56,0,0,0-2.37,5.35,42.61,42.61,0,0,0-1.1,5.71,40.1,40.1,0,0,0-.33,5.8,17.15,17.15,0,0,0,1,5.76,6,6,0,0,0,1.82,2.36.74.74,0,0,0,.23.13l.13,0a.33.33,0,0,0,.22-.17.49.49,0,0,0,0-.2,2.12,2.12,0,0,0-.11-.4l-.25-.68c-.17-.45-.32-.9-.46-1.35a12.91,12.91,0,0,1-.59-5.6,15.56,15.56,0,0,1,2.09-5.27c1-1.66,2-3.26,3.11-4.84s2.22-3.14,3.35-4.69a55,55,0,0,0,3.22-4.79,5.4,5.4,0,0,0,.75-2.78,10,10,0,0,0-.57-2.82.41.41,0,0,1,0-.32C145.86,288,146,288,146.11,288Zm-.41.4a9.92,9.92,0,0,1,.54,2.81,5.29,5.29,0,0,1-.76,2.72,54.91,54.91,0,0,1-3.26,4.74c-1.14,1.55-2.29,3.09-3.4,4.66s-2.2,3.17-3.17,4.83a15.88,15.88,0,0,0-2.19,5.37,13.31,13.31,0,0,0,.54,5.78c.14.47.29.93.45,1.38l.19.53a5.36,5.36,0,0,1-1.37-1.93,16.68,16.68,0,0,1-.86-5.58,39.51,39.51,0,0,1,.39-5.71c.58-3.76,1.3-7.61,3.47-10.73a38.12,38.12,0,0,1,3.59-4.44,28.65,28.65,0,0,0,1.89-2.24,3.32,3.32,0,0,0,.68-1.51,4.77,4.77,0,0,0-.21-1.57,5,5,0,0,1-.32-2.59,3.38,3.38,0,0,1,1.7-1.77,2.14,2.14,0,0,1,2.27.07,5.14,5.14,0,0,1,1.72,2l1,1.85a1,1,0,0,1-.37.45,2.85,2.85,0,0,1-1.36.39c-.24,0-.48,0-.72,0s-.26,0-.36.09A.46.46,0,0,0,145.7,288.43Z"/><path class="cls-1" d="M197.77,355.26l-.28,0h0c0-.18,0,0,0,.17s0,.35,0,.17h0l.28,0,1.13-.06c3-.18,6-.3,9-.58a40.93,40.93,0,0,0,8.86-1.9A26.58,26.58,0,0,0,221,351.2a22.87,22.87,0,0,0,3.7-2.67,25.47,25.47,0,0,0,3.06-3.38c.47-.6.9-1.21,1.35-1.81.23-.29.43-.64.64-1s.35-.69.52-1a22.67,22.67,0,0,0,1.43-9,19.59,19.59,0,0,0-.59-4.54,6.62,6.62,0,0,0-.95-2.16A1.75,1.75,0,0,0,229,325a2.13,2.13,0,0,0-1.26.27,6.86,6.86,0,0,0-1.8,1.52,18,18,0,0,0-1.41,1.82c-.43.61-.84,1.31-1.19,1.93a3.51,3.51,0,0,1-1.51,1.35,3.35,3.35,0,0,1-2,.09,14.39,14.39,0,0,1-2.1-.68,21,21,0,0,0-2.17-.76,14.26,14.26,0,0,0-2.29-.36,17.19,17.19,0,0,0-4.59.27,11.07,11.07,0,0,0-4.29,1.76,8.13,8.13,0,0,0-1.7,1.63,8,8,0,0,1-1.52,1.52,8.57,8.57,0,0,1-4,1.53c-1.46.22-3,.3-4.49.59a6.91,6.91,0,0,0-2.26.78,4.55,4.55,0,0,0-1.66,1.79,18.15,18.15,0,0,0-.88,2.13,2.42,2.42,0,0,1-1.13,1.49,3.5,3.5,0,0,1-1.94-.14c-.7-.19-1.42-.44-2.15-.65a9,9,0,0,0-2.34-.41,3.08,3.08,0,0,0-2.36.93c-.32.36-.5.63-.71.88a3,3,0,0,1-.76.6,3,3,0,0,1-1.92.23,28.85,28.85,0,0,1-4.19-1.43,15.28,15.28,0,0,0-2.25-.64,4.27,4.27,0,0,0-1.27,0,3,3,0,0,0-1.23.49,7,7,0,0,0-1.67,1.75l-.33.48-.31.39a1.8,1.8,0,0,1-.71.49c-1.06.33-2.42-.86-3.19-1.83L159,345l.91,1.6c.15.12.29.25.45.36a3,3,0,0,0,2.55.54,3.81,3.81,0,0,0,1.83-1.72,6.11,6.11,0,0,1,1.41-1.52c1-.77,2.53-.18,3.91.27a28.72,28.72,0,0,0,4.35,1.45,3.94,3.94,0,0,0,2.48-.33,3.9,3.9,0,0,0,1-.79c.27-.32.52-.67.7-.88.84-1,2.43-.68,3.81-.29.71.2,1.42.45,2.17.65a4.13,4.13,0,0,0,2.49.09,3.2,3.2,0,0,0,1.58-2,17.77,17.77,0,0,1,.83-2,3.73,3.73,0,0,1,1.36-1.49,6.12,6.12,0,0,1,2-.69c1.44-.28,2.94-.37,4.46-.6a9.34,9.34,0,0,0,4.33-1.69,8.77,8.77,0,0,0,1.65-1.67,7.38,7.38,0,0,1,1.54-1.49,13.21,13.21,0,0,1,8.4-1.94c.44,0,.88.09,1.31.17,2,2.73,9.31,13,5,16.49-5,4-11-12-11-12S210,346,217,350c0,0-5,0-9-8,0,0,1,6,8,10a16.87,16.87,0,0,1-7-4s4,4.32,6,5.16a43.61,43.61,0,0,1-7.09,1.4c-1.75.17-3.51.29-5.28.4a16.38,16.38,0,0,1-5.2-.79,7.1,7.1,0,0,1-3.14-2,8.2,8.2,0,0,0-2.94-2.52,6.45,6.45,0,0,0-3.83-.52,7,7,0,0,0-3.55,1.52c-1,.85-1.89,1.75-2.91,2.53a18.55,18.55,0,0,1-3.23,2.06,19.74,19.74,0,0,1-7.4,1.9,18.35,18.35,0,0,1-7.6-.73,7.84,7.84,0,0,1-3.19-2.07,7,7,0,0,1-1.64-3.43,19.42,19.42,0,0,1-.4-3.83,7.6,7.6,0,0,1,.22-1.91c.1-.29.19-.66.52-.76s.52.36.66.62c-.15-.26-.32-.63-.67-.62s-.43.47-.53.76a7.61,7.61,0,0,0-.23,1.91,19.44,19.44,0,0,0,.38,3.84,7,7,0,0,0,1.63,3.46,7.91,7.91,0,0,0,3.2,2.1,18.43,18.43,0,0,0,7.64.77,19.87,19.87,0,0,0,7.46-1.87,18.71,18.71,0,0,0,3.27-2.06c1-.79,2-1.69,2.92-2.52a6.85,6.85,0,0,1,3.46-1.46,6.24,6.24,0,0,1,3.7.52,8,8,0,0,1,2.84,2.48,7.35,7.35,0,0,0,3.24,2.13,15.19,15.19,0,0,0,3,.68l-1.44.09Zm27.39-7.92-.1.1c.06-.13.12-.26.17-.39C225.21,347.15,225.18,347.24,225.16,347.34Zm-7-15.21a11.69,11.69,0,0,0,1.56.47,4,4,0,0,0,2.41-.14,4.15,4.15,0,0,0,1.8-1.61c.39-.7.74-1.3,1.17-1.92a10.34,10.34,0,0,1,3-3.15,1.54,1.54,0,0,1,.9-.22,1.16,1.16,0,0,1,.73.48,6.13,6.13,0,0,1,.85,2,19.05,19.05,0,0,1,.59,4.4,22.17,22.17,0,0,1-1.35,8.75c-.16.33-.31.66-.49,1s-.38.61-.61.92l-.39.53A19.56,19.56,0,0,0,222,334a41.74,41.74,0,0,1,2.82,7.81C223.28,337.88,219.72,333.84,218.11,332.13Z"/><path class="cls-1" d="M47.57,158.08c1-.09,2,.65,3,2.2.53.8,1.25,2,2.16,3.52,5.66,9.48,18.9,31.7,38.09,38.67,21.39,7.78,28.61,11.68,36.82,19.88a15.8,15.8,0,0,1,2.08,2.36,45,45,0,0,1-5.8-2.3,97.73,97.73,0,0,0-12.8-4.9c-3-.83-5.48-1.74-7.64-2.55-5.69-2.13-9.8-3.66-18.61-1.46l.24,1c8.51-2.13,12.3-.72,18,1.42,2.18.81,4.65,1.74,7.73,2.58a97.19,97.19,0,0,1,12.66,4.85c3.72,1.63,5.54,2.41,6.47,2.4a.81.81,0,0,0,.74-.34c.37-.54.1-1.27-2.38-3.75-8.33-8.33-15.63-12.28-37.18-20.12-10.23-3.72-18.77-11.9-25.34-20.11C61.7,155,51,156,51,156c8.1,2.7,12.14,19.55,12.88,22.91A167.92,167.92,0,0,1,53.6,163.28c-.91-1.53-1.63-2.74-2.18-3.56-1.25-1.88-2.58-2.77-3.94-2.64-2.41.22-3.87,3.58-3.93,3.72l.92.39C44.81,160.38,46.06,158.21,47.57,158.08Z"/><path class="cls-1" d="M72.49,352.77c2.44-1.51,4-3.77,4-5.77,0-4.53-7.59-9.5-14.5-9.5-7.14,0-17,10.71-17.37,11.16l-.09.1,0,.13c-2,8.73-1.25,9-.84,9.16a.67.67,0,0,0,.22,0c.51,0,1-.68,1.55-1.86,1.65-3.3,5-4.32,7.48-4.6a18.39,18.39,0,0,1,9.85,1.83A10,10,0,0,0,72.49,352.77Zm-19.67-2.15c-3.89.43-6.82,2.26-8.27,5.15-.15.3-.28.53-.38.71a59.41,59.41,0,0,1,1.28-7.25c1-1.07,10.18-10.74,16.54-10.74,6.83,0,13.5,4.87,13.5,8.5,0,1.66-1.39,3.59-3.54,4.92a9,9,0,0,1-8.74.63A19.45,19.45,0,0,0,52.82,350.63Z"/><path class="cls-1" d="M69.57,384.61a5.85,5.85,0,0,0,1.75.6,6.77,6.77,0,0,0,1.86,0,13.91,13.91,0,0,0,6.51-3.42,23.21,23.21,0,0,0,2.63-2.63,17.52,17.52,0,0,0,2-3.11,50.37,50.37,0,0,0,3.09-6.74,24,24,0,0,0,1-3.59,6.16,6.16,0,0,0-.21-3.82,2.27,2.27,0,0,0-1.68-1.18,3.56,3.56,0,0,0-1,0,3.4,3.4,0,0,0-1,.17,5.2,5.2,0,0,0-2.94,2.51,46.48,46.48,0,0,0-2.7,6.95,20.92,20.92,0,0,1-3.35,6.35l.77.64a21.81,21.81,0,0,0,3.41-6.7,46.45,46.45,0,0,1,2.52-6.86,4.49,4.49,0,0,1,2.49-2.23,2.79,2.79,0,0,1,.83-.16,2.93,2.93,0,0,1,.84,0,1.62,1.62,0,0,1,1.24.84,5.68,5.68,0,0,1,.2,3.42,23.44,23.44,0,0,1-.95,3.52A50,50,0,0,1,84,375.88a17.18,17.18,0,0,1-2,3.09,22.94,22.94,0,0,1-2.55,2.64,13.73,13.73,0,0,1-6.36,3.48,6.67,6.67,0,0,1-1.82,0,5.78,5.78,0,0,1-1.73-.57A7.45,7.45,0,0,1,67,382,7.48,7.48,0,0,0,69.57,384.61Z"/><path class="cls-1" d="M139.6,255.51c-2.1-10-4.85-20.79-14.62-25.92s-21-2.41-28.79,4.76c-.85.78.81,4.26,0,5,7.83-7.16,19.09-9.85,28.79-4.76s12.51,15.94,14.62,25.92C139.27,258.92,139.94,257.11,139.6,255.51Z"/><path class="cls-1" d="M105,356.23c-2.61-23-5.65-47-20.21-65.91.79,1-.82,3.93,0,5,14.56,18.93,17.6,42.89,20.21,65.91C104.84,359.59,105.22,357.88,105,356.23Z"/><path class="cls-1" d="M72.63,327.14c-8.92-4.5-24.7-3.78-28,7.37-.45,1.55.44,3.48,0,5,3-10.21,17.07-11.77,25.81-8.35a24.9,24.9,0,0,1,15.65,23c0,.95,0-.81,0-.9,0-1.14,0-2.28,0-3.42C86,340.29,81.33,331.53,72.63,327.14Z"/><path class="cls-1" d="M129.38,263.58c2.55.14,5.23.63,7.15,2.31l-2.15-8.24c-.52-2-1.11-4.13-2.59-5.58a9.54,9.54,0,0,0-5.49-2.25,26.22,26.22,0,0,0-11.81,1.09,19.82,19.82,0,0,1,5.88,1.06c2.58.89,5.3,2.89,5.11,5.61a5.39,5.39,0,0,1-3.31,4.15,34.22,34.22,0,0,1-5.32,1.59c-5,1.47-9.26,4.87-13.33,8.19l-.09,1.87A34.7,34.7,0,0,1,129.38,263.58Z"/><path class="cls-1" d="M45,359s11-14,17,5c0,0,3,6,3,0S55,345,45,359Z"/><path class="cls-1" d="M129.95,287.13a4.66,4.66,0,0,0,.22-.67.73.73,0,0,0-.11-.73,1.09,1.09,0,0,0-.73-.08c-.23,0-.46.08-.69.14l-1.35.34a26.19,26.19,0,0,1-5.49.82,9.57,9.57,0,0,1-2.75-.21,6.25,6.25,0,0,1-2.45-1.23,12.48,12.48,0,0,1-3.09-4.56,20.7,20.7,0,0,0-1.28-2.47A2.69,2.69,0,0,0,110,277a2.69,2.69,0,0,1,2.21,1.47,20.69,20.69,0,0,1,1.27,2.47,12.53,12.53,0,0,0,3.07,4.6A6.32,6.32,0,0,0,119,286.8a9.66,9.66,0,0,0,2.78.23,26.31,26.31,0,0,0,5.51-.79l1.35-.33a2.25,2.25,0,0,1,1.3-.07c.14.12.11.37.06.58a4.53,4.53,0,0,1-.22.65c-.17.43-.37.85-.57,1.26a10.92,10.92,0,0,1-3.38,4.3,9.26,9.26,0,0,1-10.34.56,26.56,26.56,0,0,0-2.33-1.55,1.25,1.25,0,0,0-.76-.17.47.47,0,0,0-.33.33,1.24,1.24,0,0,0,0,.39,6.2,6.2,0,0,0,.31,1.39c.58,1.78,1.33,3.48,2.07,5.18l2.29,5.08c.39.84.76,1.69,1.1,2.55a8.92,8.92,0,0,1,.72,2.6.54.54,0,0,1,0,.24s0,0-.12,0a1.54,1.54,0,0,1-.53-.27,8.45,8.45,0,0,1-1-.9c-.64-.65-1.24-1.36-1.82-2.08-1.16-1.44-2.24-2.94-3.28-4.47a76.44,76.44,0,0,1-5.52-9.63c-.43-.82-.87-1.64-1.36-2.45a9.88,9.88,0,0,0-.81-1.18,1.51,1.51,0,0,0-.31-.29.4.4,0,0,0-.45,0,.45.45,0,0,0-.18.34,2.82,2.82,0,0,0,.06.77,45.57,45.57,0,0,0,1.64,5.36c.62,1.75,1.28,3.49,1.95,5.22s1.4,3.44,1.92,5.2a46.34,46.34,0,0,1,1.88,10.87,34.2,34.2,0,0,1-.11,5.5,13.44,13.44,0,0,1-.54,2.65,3.63,3.63,0,0,1-.56,1.11c-.26.29-.47.34-.77.18a5.23,5.23,0,0,1-1.49-2,23.53,23.53,0,0,1-1-2.53c-.61-1.73-1.11-3.51-1.56-5.3-.92-3.6-1.87-7.2-3.06-10.73a91.4,91.4,0,0,0-4.06-10.42c-.79-1.69-1.67-3.35-2.62-5a23.56,23.56,0,0,0-3.43-4.56l-.65.76a23.09,23.09,0,0,1,3.25,4.31c.94,1.57,1.82,3.19,2.6,4.86a90.51,90.51,0,0,1,4.08,10.29c1.2,3.5,2.16,7.07,3.1,10.66.47,1.8,1,3.6,1.61,5.37a24.28,24.28,0,0,0,1.09,2.61,10.07,10.07,0,0,0,.72,1.25,3.62,3.62,0,0,0,1.09,1.1,1.31,1.31,0,0,0,.94.15,1.5,1.5,0,0,0,.76-.51,4.29,4.29,0,0,0,.69-1.36,14.12,14.12,0,0,0,.55-2.8,34.89,34.89,0,0,0,.09-5.62,47,47,0,0,0-2-11c-.54-1.8-1.3-3.51-2-5.23s-1.34-3.46-2-5.2A45.37,45.37,0,0,1,103.7,289c0-.12,0-.25-.05-.37h0a9.5,9.5,0,0,1,.76,1.11c.48.78.92,1.6,1.35,2.41a76.92,76.92,0,0,0,5.6,9.64c1.05,1.54,2.15,3,3.33,4.48.59.72,1.2,1.43,1.86,2.09a8.8,8.8,0,0,0,1.07.94,1.82,1.82,0,0,0,.7.34.47.47,0,0,0,.49-.21.86.86,0,0,0,.11-.43,9,9,0,0,0-.76-2.74c-.34-.87-.73-1.72-1.12-2.56l-2.31-5.06c-.74-1.7-1.5-3.39-2.09-5.14a6,6,0,0,1-.3-1.32c0-.22,0-.42.15-.45a1.06,1.06,0,0,1,.57.15,26.86,26.86,0,0,1,2.31,1.52,9.48,9.48,0,0,0,10.58-.62,11.09,11.09,0,0,0,3.4-4.38C129.58,288,129.78,287.57,129.95,287.13Z"/><path class="cls-1" d="M90,397c-11,4-14.46-.84-25-4-10-3-22,0-24,4h1s7-2,21,2,14,12,25,7,14-16,15-27C103,379,101,393,90,397Z"/><path class="cls-1" d="M45,400s-6,2-1,2,14,3,22,7,24,22,12,6S45,400,45,400Z"/><path class="cls-1" d="M121,186c-5-3-7-6-15-16,0,0-1-6-6-6-1.41,0-6,3-2,6s8,1,14,9,12,9,14,14C126,193,126,189,121,186Z"/><path class="cls-1" d="M118,201c-6-5-16-3-22-5,0,0,0,2,6,4s19,4,35,20C137,220,124,206,118,201Z"/><path class="cls-1" d="M129,199c2,9,12,22,17,27s8,3,8,8-8,1-8,1c-5-5-3-2-2-1a14.39,14.39,0,0,1,2,3c16,4,14-4,12-10a115.67,115.67,0,0,0-11-24c-6-10-11-21-11-21,2,8,9,20,12,25s8,22,0,16-16-20-16-20c6,15,22,27,14,21S129,199,129,199Z"/><path class="cls-1" d="M232,287c-36-6-48-43-48-43a27.86,27.86,0,0,0,1,12s-16-16-39-18c0,0,.26.52.65,1.38,1.82,0,21.26.53,39.35,18.63,18.33,18.33,26.42,22.7,27,23-.67-.35-16.66-8.67-26-18-9-9-29.53-19-38.23-18.57.25.67.5,1.36.73,2.07,0,0,16,0,38,19S226,290,243,291c16.06.94,33.91-6.15,51-17.05C285.73,279,261.16,291.86,232,287Z"/><path class="cls-1" d="M182,257s-13.55-15-34.64-16.05c.27.61.55,1.3.85,2C150,242.81,164.27,242.07,182,257Z"/><path class="cls-1" d="M297,272c-1,.66-2,1.31-3,1.95C295.95,272.76,297,272,297,272Z"/><path class="cls-1" d="M44,162v2s4-1,13,16,29,24,32,25,24,6,38,18a71.48,71.48,0,0,0-29-16c-20.12-5.59-33-15-40-28S48,162,44,162Z"/><path class="cls-1" d="M198.16,283.44c-23.9-26.36-41.23-28.37-45.26-28.45a6.17,6.17,0,0,1,.1,1s19,4,34,19A54,54,0,0,0,198.16,283.44Z"/><path class="cls-1" d="M150,248s.57.95,1.21,2.26C170.09,251.1,191,272,191,272,187.46,268.46,173,251,150,248Z"/><path class="cls-1" d="M297.09,273.72c.58-.46.91-.72.91-.72Z"/><path class="cls-1" d="M243,295c10.85,0,32.4-3.9,54.09-21.28-4.7,3.66-27.41,20.16-54.09,19.28a85.29,85.29,0,0,1-10.56-1c-7.16-1.77-21.23-6.41-37.44-18a83.26,83.26,0,0,0,33.13,17.18C207,286.67,194.29,275.29,191,272c-25.83-20.29-37.32-20-39-19.86a17.24,17.24,0,0,1,.66,2c20.63,2.58,38.44,20.69,46.18,29.76C214.85,292.83,234.34,295,243,295Z"/><path class="cls-1" d="M227.59,278.76c1.15.21,2.52.45,4.05.66A11.87,11.87,0,0,1,230,277,4.85,4.85,0,0,1,227.59,278.76Z"/><path class="cls-1" d="M232.06,279.89a43,43,0,0,1-5-1c-2,.56-5.21.48-10-1.93,0,0,9,10,29,9s46-13,49-15c0,0-26.88,13.89-53,13.15a57.57,57.57,0,0,0,7.92-.1c-4.65.44-14.76.93-22.95-2a87.7,87.7,0,0,0,11.22,1.86,11.68,11.68,0,0,1-3.25-1.54A44.53,44.53,0,0,1,222,280a88.29,88.29,0,0,0,12.46,2c-.3-.21-.59-.44-.89-.68A44,44,0,0,1,221,279a88.26,88.26,0,0,0,12.16,1.94C232.78,280.61,232.41,280.26,232.06,279.89Zm20.44,3.86-.68.09Z"/><path class="cls-1" d="M80.5,409.5l2,2c16-3,18.17-18.5,18.17-18.5C95.83,408.5,80.5,409.5,80.5,409.5Z"/><path class="cls-1" d="M45,157v0c13-15,43.49-5.49,43.49-5.49s-14-5-26-5A22.2,22.2,0,0,0,45,154.63V153a20.11,20.11,0,0,1,4.25-4,21.85,21.85,0,0,1,10.86-4,22.71,22.71,0,0,1,2.92-.08c1,0,1.94.18,2.91.26h0a6.77,6.77,0,0,0,3.77-.93,9.67,9.67,0,0,0,2.61-2.86l.53-.79.26-.39c.09-.14.18-.18.26-.28a5.81,5.81,0,0,1,1.65-.68,23.39,23.39,0,0,1,3.7-.62,57,57,0,0,1,15,.9,67.22,67.22,0,0,1,38.65,21.91c3.31,3.79,6.35,7.84,9.31,11.94,5.9,8.22,11.43,16.74,17.28,25.06a200.07,200.07,0,0,0,19.1,23.92c7.1,7.36,15.36,14,25.15,17.84a49.05,49.05,0,0,0,15.3,3.35c2.65.19,5.16.06,7.73.07,1.28,0,2.56-.08,3.84-.12s2.56-.07,3.84-.18a111.13,111.13,0,0,0,15.35-1.9c1.28-.24,2.54-.58,3.81-.88s2.53-.7,3.78-1.17q.94-.31,1.88-.71c.62-.24,1.24-.53,1.86-.84a20,20,0,0,0,1.84-1c.31-.21.61-.38.92-.63a7.25,7.25,0,0,0,1-.89l-3-2.63s-.24.22-.42.35-.44.3-.65.46a16.1,16.1,0,0,1-1.48.84c-.51.27-1,.52-1.6.75s-1.1.47-1.67.66c-1.12.44-2.31.77-3.47,1.13s-2.38.63-3.59.88a107.56,107.56,0,0,1-14.81,2c-1.25.13-2.5.16-3.76.23s-2.51.16-3.77.17c-2.5,0-5.07.18-7.49,0a45.82,45.82,0,0,1-14.35-2.92c-9.25-3.46-17.32-9.7-24.36-16.8a197.77,197.77,0,0,1-19.2-23.34c-5.94-8.2-11.6-16.63-17.66-24.82-3-4.08-6.16-8.11-9.59-11.92A68.46,68.46,0,0,0,94,138.71,57.72,57.72,0,0,0,78.73,138a24,24,0,0,0-3.79.69,6.22,6.22,0,0,0-1.83.8,3.33,3.33,0,0,0-.64.82l-.52.8a9.22,9.22,0,0,1-2.43,2.76,6.33,6.33,0,0,1-3.5.91c-1-.07-2-.21-2.93-.22a23.06,23.06,0,0,0-3,.13,22.1,22.1,0,0,0-10.92,4.18A20.21,20.21,0,0,0,45,153h0v1.69l-.23.31S44.08,158,45,157Z"/><path class="cls-1" d="M107,206c18,6,30,21,30,21-11-16-18-18-33-24s-25-21-25-21S89,200,107,206Z"/><path class="cls-1" d="M94.5,163.5c-3.22,2-1.3,4.78.84,6.69-1.15-1.37-1.76-3.3.16-5.69,3.39-4.24,8.93-2,10.54,1.22C105.07,163,102.23,158.58,94.5,163.5Z"/><path class="cls-1" d="M98.5,172.5a21.76,21.76,0,0,1-3.16-2.31A9.68,9.68,0,0,0,98.5,172.5Z"/><path class="cls-1" d="M106.5,167.5a4,4,0,0,0-.46-1.78A9.89,9.89,0,0,1,106.5,167.5Z"/><path class="cls-1" d="M77,167s5,10,22,16C99,183,83,174,77,167Z"/><path class="cls-1" d="M85,205s-23-8-30-25C55,180,55,200,85,205Z"/><path class="cls-1" d="M80.31,199l4.08,1.7-3.59-2.57c-.14-.1-14-10-19.89-17.89l-.83.56C60.15,180.89,68.3,194,80.31,199Zm-5.58-4.23a46.22,46.22,0,0,1-6.12-5.12C70.74,191.5,72.88,193.27,74.73,194.74Z"/><path class="cls-1" d="M282,97s38,34,37,79l3-2S318,126,282,97Z"/><path class="cls-1" d="M320,125c11,15,14,35,14,35l2-2C327,131,320,125,320,125Z"/><path class="cls-1" d="M311,144c-7-20-16-29-16-29C301,123,311,144,311,144Z"/><path class="cls-1" d="M89,242c-28,30-2,41-2,41C68,265,89,242,89,242Z"/><path class="cls-1" d="M87.47,237.29c.39-.26-.37-2.26,0-2.5-8,5.19-10.84,13.11-12.85,22-.18.8.18,1.71,0,2.5C76.63,250.4,79.47,242.48,87.47,237.29Z"/><path class="cls-1" d="M73.26,245.25c-2.13,4.37-1.91,9.19-1.92,13.92,0,2.79,0,2.88,0,0,0-5.76,2.16-10,5.5-14.55,2.88-3.91,5.84-8.39,9.58-11.5.84-.7-.8-4.34,0-5A57.5,57.5,0,0,0,73.26,245.25Z"/><path class="cls-1" d="M63.39,249.67c-.06,1.5.06,3.64,0,4.82.5-12.78,12-20.3,21.26-27.16.82-.61-.77-4.43,0-5C75.27,229.28,63.9,236.78,63.39,249.67Z"/><path class="cls-1" d="M119.73,226.11A36,36,0,0,1,132,233,26.9,26.9,0,0,0,119.73,226.11Z"/><path class="cls-1" d="M86,220s1,13,18,7a26.74,26.74,0,0,1,15.73-.89A25.07,25.07,0,0,0,104,226C89,231,86,220,86,220Z"/><path class="cls-1" d="M95.5,225.5c5.5-2.5,20-3,20-3C107.5,219.5,95.5,225.5,95.5,225.5Z"/><path class="cls-1" d="M142,254s2.81-20.6-15.13-27.37C130.95,228.37,140.44,234.48,142,254Z"/><path class="cls-1" d="M126.8,226.61A10.64,10.64,0,0,0,125,226Q125.94,226.28,126.8,226.61Z"/><path class="cls-1" d="M132,228l.43.15C132.16,228,132,228,132,228Z"/><path class="cls-1" d="M144,251s3.91-17.66-11.57-22.85C134.46,228.95,143.12,233.36,144,251Z"/><path class="cls-1" d="M80,182c14,17,28,14,28,14C93,197,80,182,80,182Z"/><path class="cls-1" d="M151,234c-4,1-11-8-11-8s7,12,12,9-6-7-6-7S155,233,151,234Z"/><path class="cls-1" d="M157,239c11-2,2-15,2-15C165,237,157,239,157,239Z"/><path class="cls-1" d="M160,239c6-1,4-7,4-7C165,237,160,239,160,239Z"/><path class="cls-1" d="M162,240c5.14-.86,3.43-6,3.43-6C166.29,238.29,162,240,162,240Z"/><path class="cls-1" d="M164,241c5.14-.86,3.43-6,3.43-6C168.29,239.29,164,241,164,241Z"/><path class="cls-1" d="M96,245c17-15,34-5,34-5-2-2-15.28-13.36-36,3-19,15-10,30-10,30S79,260,96,245Z"/><path class="cls-1" d="M134,251s-5-25-28,3C106,254,122,237,134,251Z"/><path class="cls-1" d="M106,245c6-6,17-6,17-6C111,236,106,245,106,245Z"/><path class="cls-1" d="M45,196c-3-1-1,11-1,11,11,16,32,10,32,10C55,217,45,196,45,196Z"/><path class="cls-1" d="M43,216c12,10,22,4,22,4a22.15,22.15,0,0,1-21-8H43Z"/><path class="cls-1" d="M56.9,256.91s-3.58,14.34-8.6,16.49A40.62,40.62,0,0,0,54.75,244s.72,15.06-5,22.23-13.62-2.15-13.62-2.15L45.42,282A37.67,37.67,0,0,0,56.9,256.91Z"/><path class="cls-1" d="M269,274s12-2,21-6c0,0-43,21-58,8,0,0,3,8,16,6s36-4,48-15l-3-4A63.81,63.81,0,0,1,269,274Z"/><path class="cls-1" d="M277,288a90.42,90.42,0,0,0,27-14l-2-2A101.43,101.43,0,0,1,277,288Z"/><path class="cls-1" d="M197,257a54.79,54.79,0,0,0,18,17c12,7,16,0,16,0C216,280,197,257,197,257Z"/><path class="cls-1" d="M235,276s16,8,46-11C281,265,254,280,235,276Z"/><path class="cls-1" d="M277,270c5-1,16-10,16-10l-2-2A44.56,44.56,0,0,1,277,270Z"/><path class="cls-1" d="M235.5,67.5a97.23,97.23,0,0,1,10,3.66C257.29,74.59,277.72,83.43,299,106a143.11,143.11,0,0,0-21.05-15.92c20.79,16.07,42.11,42.12,45.55,82.42l9-12S316.5,80.5,235.5,67.5Z"/><path class="cls-1" d="M43,170c6,1,10,12,10,12-2-14-9-15-9-15S37,169,43,170Z"/></g></svg>