<svg xmlns="http://www.w3.org/2000/svg" viewBox="0 0 463 446"><title>Klogo</title><g id="Layer_3" data-name="Layer 3"><path d="M222,334a19.56,19.56,0,0,1,6.26,9.57l.39-.53c.23-.3.4-.61.61-.92s.32-.66.49-1a22.17,22.17,0,0,0,1.35-8.75,19.05,19.05,0,0,0-.59-4.4,6.13,6.13,0,0,0-.85-2,1.16,1.16,0,0,0-.73-.48,1.55,1.55,0,0,0-.9.22,10.34,10.34,0,0,0-3,3.15c-.43.62-.78,1.23-1.17,1.92a4.15,4.15,0,0,1-1.8,1.61,4,4,0,0,1-2.41.14,11.68,11.68,0,0,1-1.56-.47c1.61,1.71,5.17,5.75,6.71,9.68A41.74,41.74,0,0,0,222,334Z" style="stroke:#fff;stroke-miterlimit:10;stroke-width:0.5px"/><path d="M146.83,287.95a2.85,2.85,0,0,0,1.36-.39,1,1,0,0,0,.37-.45l-1-1.85a5.14,5.14,0,0,0-1.72-2,2.14,2.14,0,0,0-2.27-.07,3.38,3.38,0,0,0-1.7,1.77,5,5,0,0,0,.32,2.59,4.77,4.77,0,0,1,.21,1.57,3.32,3.32,0,0,1-.68,1.51,28.67,28.67,0,0,1-1.89,2.24,38.12,38.12,0,0,0-3.59,4.44c-2.17,3.12-2.9,7-3.47,10.73a39.51,39.51,0,0,0-.39,5.71,16.68,16.68,0,0,0,.86,5.58,5.36,5.36,0,0,0,1.37,1.93l-.19-.53c-.16-.45-.32-.91-.45-1.38a13.31,13.31,0,0,1-.54-5.78,15.88,15.88,0,0,1,2.19-5.37c1-1.67,2.06-3.26,3.17-4.83s2.26-3.11,3.4-4.66a54.91,54.91,0,0,0,3.26-4.74,5.29,5.29,0,0,0,.76-2.72,9.92,9.92,0,0,0-.54-2.81.46.46,0,0,1,0-.37c.1-.11.25-.08.36-.09S146.59,288,146.83,287.95Z" style="stroke:#fff;stroke-miterlimit:10;stroke-width:0.5px"/><path d="M225.16,347.34c0-.1.05-.19.07-.29-.05.13-.1.26-.17.39Z" style="stroke:#fff;stroke-miterlimit:10;stroke-width:0.5px"/><path d="M251.82,283.84l.68-.09Z" style="stroke:#fff;stroke-miterlimit:10;stroke-width:0.5px"/><path d="M156.35,298.35a.52.52,0,0,1,0-.27,5.58,5.58,0,0,1,.36-1,21.23,21.23,0,0,1,1-1.91,17.27,17.27,0,0,1,2.52-3.48,5.53,5.53,0,0,0,1.34-3.91,2.55,2.55,0,0,0-.8-1.85,2.92,2.92,0,0,0-1.86-.79,2.69,2.69,0,0,0-1.83.82,7.26,7.26,0,0,0-1.27,1.67,34.21,34.21,0,0,0-1.86,3.85,72,72,0,0,0-2.82,8.08,35.15,35.15,0,0,0-1,4.15,6.71,6.71,0,0,0,0,2.05c.11.63.37,1.34.87,1.55s1-.16,1.34-.72a2,2,0,0,0,.21-.44l.2-.5a5.19,5.19,0,0,1,.56-1,15.54,15.54,0,0,1,3.18-3c1.15-.88,2.34-1.68,3.49-2.52a15.21,15.21,0,0,0,1.62-1.32,7.63,7.63,0,0,0,1.27-1.56c.16-.28.17-.53.13-.54a1.11,1.11,0,0,0-.65-.19,4.12,4.12,0,0,0-1.89.27,11.8,11.8,0,0,0-3.14,2.61L157,298a2.53,2.53,0,0,1-.41.35C156.53,298.39,156.4,298.46,156.35,298.35Z" style="stroke:#fff;stroke-miterlimit:10;stroke-width:0.5px"/><path d="M74.73,194.74c-1.85-1.47-4-3.23-6.12-5.12A46.22,46.22,0,0,0,74.73,194.74Z" style="stroke:#fff;stroke-miterlimit:10;stroke-width:0.5px"/><path d="M158.34,344.38c-.33.09-.42.47-.52.76a7.6,7.6,0,0,0-.22,1.91,19.42,19.42,0,0,0,.4,3.83,7,7,0,0,0,1.64,3.43,7.84,7.84,0,0,0,3.19,2.07,18.35,18.35,0,0,0,7.6.73,19.74,19.74,0,0,0,7.4-1.9,18.55,18.55,0,0,0,3.23-2.06c1-.79,1.93-1.69,2.91-2.53a7,7,0,0,1,3.55-1.52,6.45,6.45,0,0,1,3.83.52,8.2,8.2,0,0,1,2.94,2.52,7.1,7.1,0,0,0,3.14,2,16.39,16.39,0,0,0,5.2.79c1.77-.11,3.53-.23,5.28-.4a43.61,43.61,0,0,0,7.09-1.4c-2-.84-6-5.16-6-5.16a16.87,16.87,0,0,0,7,4c-7-4-8-10-8-10,4,8,9,8,9,8-7-4-8.5-14.5-8.5-14.5s6,16,11,12c4.32-3.46-2.94-13.77-5-16.49-.43-.07-.87-.13-1.31-.17a13.21,13.21,0,0,0-8.4,1.94,7.38,7.38,0,0,0-1.54,1.49,8.76,8.76,0,0,1-1.65,1.67,9.34,9.34,0,0,1-4.33,1.69c-1.52.24-3,.32-4.46.6a6.12,6.12,0,0,0-2,.69,3.73,3.73,0,0,0-1.36,1.49,17.77,17.77,0,0,0-.83,2,3.2,3.2,0,0,1-1.58,2,4.13,4.13,0,0,1-2.49-.09c-.75-.2-1.46-.44-2.17-.65-1.38-.39-3-.67-3.81.29-.19.2-.44.55-.7.88a3.58,3.58,0,0,1-3.48,1.12,28.71,28.71,0,0,1-4.35-1.45c-1.39-.44-2.9-1-3.91-.27a6.11,6.11,0,0,0-1.41,1.52,3.81,3.81,0,0,1-1.83,1.72,3,3,0,0,1-2.55-.54c-.16-.11-.3-.24-.45-.36L159,345C158.85,344.74,158.68,344.37,158.34,344.38Z" style="stroke:#fff;stroke-miterlimit:10;stroke-width:0.5px"/><path d="M49.55,414H73.09A42.89,42.89,0,0,0,66,409c-7-3.51-14.82-6.25-20-6.87v8.32A3.55,3.55,0,0,0,49.55,414Z" style="stroke:#fff;stroke-miterlimit:10;stroke-width:0.5px"/><path d="M434.53,407.94,302,275.45A90.72,90.72,0,0,1,277,288a100.9,100.9,0,0,0,23.16-14.43l-5.46-5.46c-12.3,10-34.16,12-46.7,13.88-13,2-16-6-16-6,15,13,58-8,58-8-9,4-21,6-21,6a64.53,64.53,0,0,0,22-9.57l-1.63-1.63c-3.66,2.73-9.22,6.57-12.39,7.2a44.74,44.74,0,0,0,11.06-8.53l-25-25-.51.34a20,20,0,0,1-1.84,1c-.62.31-1.23.59-1.86.84s-1.25.51-1.88.71c-1.25.47-2.52.8-3.78,1.17s-2.54.64-3.81.88a111.13,111.13,0,0,1-15.35,1.9c-1.28.11-2.56.12-3.84.18s-2.56.13-3.84.12c-2.57,0-5.08.12-7.73-.07a49.06,49.06,0,0,1-15.3-3.35c-9.78-3.84-18-10.48-25.15-17.84a200.07,200.07,0,0,1-19.1-23.92c-5.85-8.32-11.38-16.84-17.28-25.06-3-4.1-6-8.15-9.31-11.94a67.22,67.22,0,0,0-38.65-21.91,57,57,0,0,0-15-.9,23.39,23.39,0,0,0-3.7.62,5.81,5.81,0,0,0-1.65.68c-.08.1-.17.14-.26.28l-.26.39-.53.79a9.67,9.67,0,0,1-2.61,2.86,6.77,6.77,0,0,1-3.77.93h0c-1-.08-1.94-.23-2.91-.26a22.7,22.7,0,0,0-2.92.08A22,22,0,0,0,46,151.88v1.62a22.32,22.32,0,0,1,16.5-7c12,0,26,5,26,5s-29-9-42.5,4.45v1.69a3.17,3.17,0,0,1,1.47-.56c1.36-.13,2.69.76,3.94,2.64.55.82,1.27,2,2.18,3.56a167.91,167.91,0,0,0,10.28,15.63C63.14,175.55,59.1,158.7,51,156c0,0,10.7-1,14.83,25.42,6.57,8.21,15.11,16.39,25.34,20.11,21.56,7.84,28.85,11.79,37.18,20.12,2.48,2.48,2.75,3.21,2.38,3.75a.81.81,0,0,1-.74.34c-.93,0-2.75-.77-6.47-2.4a97.19,97.19,0,0,0-12.66-4.85c-3.08-.84-5.55-1.76-7.73-2.58-5.73-2.14-9.51-3.55-18-1.42l-.24-1c8.82-2.2,12.93-.67,18.61,1.46,2.16.81,4.6,1.72,7.64,2.55a97.73,97.73,0,0,1,12.8,4.9,45,45,0,0,0,5.8,2.3,15.8,15.8,0,0,0-2.08-2.36c-8.2-8.2-15.43-12.11-36.82-19.88-19.19-7-32.43-29.19-38.09-38.67-.91-1.52-1.62-2.72-2.16-3.52-1-1.55-2-2.29-3-2.2a2.7,2.7,0,0,0-1.57.85v3.47c3.15,1.26,6.2,5.84,12,16.61,7,13,19.88,22.41,40,28a71.48,71.48,0,0,1,29,16c-14-12-35-17-38-18s-23-8-32-25c-5.39-10.18-9-13.9-11-15.25v3.1c2.23,1.38,5.69,5,7,14.15,0,0-2.7-7.43-7-10.63v26.46C49,202.94,58.81,217,76,217c0,0-18.64,5.32-30-7.45v4.66A22.39,22.39,0,0,0,65,220s-8.38,5-19-1.8v50.57a6.79,6.79,0,0,0,3.73-2.55c5.74-7.17,5-22.23,5-22.23a40.62,40.62,0,0,1-6.45,29.4c5-2.15,8.6-16.49,8.6-16.49A37.85,37.85,0,0,1,46,281.46v50c5-8.22,18.6-8.4,26.63-4.35,8.7,4.39,13.37,13.15,13.52,22.69,0,1.14,0,2.28,0,3.42,0,.09,0,1.85,0,.9a24.9,24.9,0,0,0-15.65-23c-7.8-3.05-19.86-2.13-24.48,5.36v10.71c3-3,10.34-9.74,16-9.74,6.91,0,14.5,5,14.5,9.5,0,2-1.58,4.27-4,5.77a10,10,0,0,1-9.71.67,18.39,18.39,0,0,0-9.85-1.83,9.41,9.41,0,0,0-6.93,3.7v2.37c9.66-11.83,19,.51,19,6.31,0,6-3,0-3,0-4.91-15.54-13.16-9-16-6.11v35.59A31.89,31.89,0,0,1,65,393c10.54,3.16,14,8,25,4s13-18,13-18c-1,11-4,22-15,27s-11-3-25-7a55.3,55.3,0,0,0-17-2.48V400c4.19,0,20.7,1,31.21,14H432a3.55,3.55,0,0,0,2.51-6.06ZM281,265c-30,19-46,11-46,11C254,280,281,265,281,265ZM80.31,199c-12-5-20.15-18.07-20.23-18.2l.83-.56C66.78,188,80.65,198,80.79,198.09l3.59,2.57ZM82.5,411.5l-2-2s15.33-1,20.17-16.5C100.67,393,98.5,408.5,82.5,411.5ZM298,273s-.32.27-.91.72C275.4,291.1,253.85,295,243,295c-8.66,0-28.15-2.17-44.11-11.14-7.74-9.07-25.55-27.18-46.18-29.76a17.25,17.25,0,0,0-.66-2c1.63-.16,13.13-.43,39,19.86,0,0-20.91-20.9-39.79-21.74C150.57,248.95,150,248,150,248c23,3,37.46,20.46,41,24,3.29,3.29,16,14.67,37.13,19.18A83.26,83.26,0,0,1,195,274c16.21,11.58,30.28,16.23,37.44,18A85.32,85.32,0,0,0,243,293c26.68.89,49.39-15.61,54.09-19.28ZM156.36,298.34c0,.1.16,0,.22,0A2.52,2.52,0,0,0,157,298l-.35-.35a12.42,12.42,0,0,1,3.49-2.77,5,5,0,0,1,2.33-.31,1.76,1.76,0,0,1,1.29.58,1.12,1.12,0,0,1,.16.86,2.35,2.35,0,0,1-.24.63,8.35,8.35,0,0,1-1.45,1.74,15.93,15.93,0,0,1-1.73,1.37c-1.18.84-2.37,1.62-3.51,2.46A14.93,14.93,0,0,0,153.9,305a4.52,4.52,0,0,0-.49.86,8.17,8.17,0,0,1-.47,1,2.45,2.45,0,0,1-.85.88,1.4,1.4,0,0,1-1.32.06,1.84,1.84,0,0,1-.86-.91,3.59,3.59,0,0,1-.33-1.11,7.27,7.27,0,0,1,0-2.23,35.49,35.49,0,0,1,1-4.21,72.4,72.4,0,0,1,3-8.09,34.49,34.49,0,0,1,1.93-3.86,7.55,7.55,0,0,1,1.35-1.72,3,3,0,0,1,2-.86,3.15,3.15,0,0,1,2,.88,2.75,2.75,0,0,1,.84,2,5.69,5.69,0,0,1-1.43,4,17.17,17.17,0,0,0-2.56,3.43,21.23,21.23,0,0,0-1,1.89,5.56,5.56,0,0,0-.37,1A.51.51,0,0,0,156.36,298.34Zm41,56.07a7.35,7.35,0,0,1-3.24-2.13,8,8,0,0,0-2.84-2.48,6.24,6.24,0,0,0-3.7-.52,6.85,6.85,0,0,0-3.46,1.46c-1,.83-1.9,1.74-2.92,2.52a18.71,18.71,0,0,1-3.27,2.06,19.87,19.87,0,0,1-7.46,1.87,18.43,18.43,0,0,1-7.64-.77,7.91,7.91,0,0,1-3.2-2.1,7,7,0,0,1-1.63-3.46,19.44,19.44,0,0,1-.38-3.84,7.61,7.61,0,0,1,.23-1.91c.1-.29.2-.67.53-.76s.52.36.67.62l.43-.26c.77,1,2.12,2.15,3.19,1.83a1.8,1.8,0,0,0,.71-.49l.31-.39.33-.48a7,7,0,0,1,1.67-1.75,3,3,0,0,1,1.23-.49,4.28,4.28,0,0,1,1.27,0,15.28,15.28,0,0,1,2.25.64,28.88,28.88,0,0,0,4.19,1.43,3,3,0,0,0,1.92-.23,3,3,0,0,0,.76-.6c.21-.26.4-.52.71-.88a3.08,3.08,0,0,1,2.36-.93,9,9,0,0,1,2.34.41c.74.21,1.45.46,2.15.65a3.5,3.5,0,0,0,1.94.14,2.42,2.42,0,0,0,1.13-1.49,18.15,18.15,0,0,1,.88-2.13,4.55,4.55,0,0,1,1.66-1.79,6.9,6.9,0,0,1,2.26-.78c1.52-.29,3-.37,4.49-.59a8.57,8.57,0,0,0,4-1.53,8,8,0,0,0,1.52-1.52,8.13,8.13,0,0,1,1.7-1.63,11.08,11.08,0,0,1,4.29-1.76,17.19,17.19,0,0,1,4.59-.27,14.26,14.26,0,0,1,2.29.36,21,21,0,0,1,2.17.76,14.4,14.4,0,0,0,2.1.68,3.35,3.35,0,0,0,2-.09,3.51,3.51,0,0,0,1.51-1.35c.34-.62.76-1.32,1.19-1.93a18,18,0,0,1,1.41-1.82,6.86,6.86,0,0,1,1.8-1.52A2.13,2.13,0,0,1,229,325a1.75,1.75,0,0,1,1.12.7,6.62,6.62,0,0,1,.95,2.16,19.59,19.59,0,0,1,.59,4.54,22.67,22.67,0,0,1-1.43,9c-.17.35-.33.7-.52,1s-.42.67-.64,1c-.45.6-.89,1.21-1.35,1.81a25.48,25.48,0,0,1-3.06,3.38,22.88,22.88,0,0,1-3.7,2.67A26.59,26.59,0,0,1,216.8,353a40.92,40.92,0,0,1-8.86,1.9c-3,.28-6,.4-9,.58l-1.13.06-.28,0h0c0,.18,0,0,0-.17s0-.35,0-.17h0l.28,0,1.13-.07,1.44-.09A15.18,15.18,0,0,1,197.33,354.42ZM153,256a6.17,6.17,0,0,0-.1-1c4,.08,21.36,2.1,45.26,28.45A53.94,53.94,0,0,1,187,275C172,260,153,256,153,256Zm79.06,23.89c.35.37.72.73,1.1,1.06A88.25,88.25,0,0,1,221,279a44,44,0,0,0,12.58,2.29c.29.24.59.47.89.68A88.29,88.29,0,0,1,222,280a44.53,44.53,0,0,0,13,2.31,11.68,11.68,0,0,0,3.25,1.54A87.68,87.68,0,0,1,227,282c8.18,3,18.3,2.49,22.95,2a57.56,57.56,0,0,1-7.92.1c26.1.75,53-13.15,53-13.15-3,2-29,14-49,15s-29-9-29-9c4.83,2.42,8,2.5,10,1.93A42.93,42.93,0,0,0,232.06,279.89Zm-4.47-1.13A4.85,4.85,0,0,0,230,277a11.87,11.87,0,0,0,1.65,2.42C230.11,279.2,228.74,279,227.59,278.76ZM231,274s-4,7-16,0a54.79,54.79,0,0,1-18-17S216,280,231,274Zm-46-18a27.86,27.86,0,0,1-1-12s12,37,48,43c29.16,4.86,53.73-8,62-13.05,1-.64,2-1.28,3-1.95,0,0-1.05.76-3,1.95-17.1,10.91-34.95,18-51,17.05-17-1-33.5-6.5-55.5-25.5s-38-19-38-19c-.24-.71-.48-1.4-.73-2.07C157.47,244,178,254,187,263c9.31,9.31,25.3,17.64,26,18-.54-.28-8.63-4.65-27-23-18.09-18.09-37.53-18.62-39.35-18.62-.4-.86-.65-1.37-.65-1.37C169,240,185,256,185,256Zm-39.24,32.42a10,10,0,0,1,.57,2.82,5.4,5.4,0,0,1-.75,2.78,55,55,0,0,1-3.22,4.79c-1.13,1.56-2.26,3.11-3.35,4.69s-2.16,3.18-3.11,4.84a15.56,15.56,0,0,0-2.09,5.27,12.91,12.91,0,0,0,.59,5.6c.14.45.3.9.46,1.35l.25.68a2.12,2.12,0,0,1,.11.4.49.49,0,0,1,0,.2.33.33,0,0,1-.22.17l-.13,0a.74.74,0,0,1-.23-.13,6,6,0,0,1-1.82-2.36,17.15,17.15,0,0,1-1-5.76,40.1,40.1,0,0,1,.33-5.8,42.61,42.61,0,0,1,1.1-5.71,17.56,17.56,0,0,1,2.37-5.35,38.85,38.85,0,0,1,3.61-4.57,28.15,28.15,0,0,0,1.81-2.18,2.64,2.64,0,0,0,.51-1.09,4,4,0,0,0-.19-1.27,5.69,5.69,0,0,1-.35-3.06,3.31,3.31,0,0,1,.87-1.41,5.21,5.21,0,0,1,1.27-.94,3.12,3.12,0,0,1,3.21.08l.18.13L148,285a4.41,4.41,0,0,1,.62,1.29,1.51,1.51,0,0,1,0,.72,1.07,1.07,0,0,1-.43.57,2.88,2.88,0,0,1-1.38.41c-.24,0-.48,0-.72,0s-.25,0-.32.07A.41.41,0,0,0,145.76,288.42ZM84,273s-9-15,10-30c20.72-16.36,34-5,36-3,0,0-17-10-34,5S84,273,84,273Zm55.6-12.49c-2.1-10-4.85-20.79-14.62-25.92s-21-2.41-28.79,4.76c.81-.74-.85-4.22,0-5,7.83-7.16,19.09-9.85,28.79-4.76s12.51,15.94,14.62,25.92C139.94,257.11,139.27,258.92,139.6,260.51ZM134,251c-12-14-28,3-28,3C129,226,134,251,134,251Zm-28-6s5-9,17-6C123,239,112,239,106,245Zm-2.47,26.52c4.07-3.32,8.29-6.72,13.33-8.19a34.24,34.24,0,0,0,5.32-1.59,5.39,5.39,0,0,0,3.31-4.15c.19-2.72-2.53-4.72-5.11-5.61a19.82,19.82,0,0,0-5.88-1.06,26.22,26.22,0,0,1,11.81-1.09,9.54,9.54,0,0,1,5.49,2.25c1.48,1.46,2.07,3.57,2.59,5.58l2.15,8.24c-1.93-1.67-4.61-2.17-7.15-2.31a34.7,34.7,0,0,0-25.94,9.81ZM118,201c6,5,19,19,19,19-16-16-29-18-35-20s-6-4-6-4C102,198,112,196,118,201ZM80,182s13,15,28,14C108,196,94,199,80,182Zm66,46s11,4,6,7-12-9-12-9,7,9,11,8S146,228,146,228Zm-13.57.15L132,228s.16,0,.43.15C147.91,233.34,144,251,144,251,143.12,233.36,134.46,228.95,132.43,228.15ZM148.2,243c-.29-.74-.58-1.42-.85-2C168.45,242,182,257,182,257,164.27,242.07,150,242.81,148.2,243Zm19.23-8s1.71,5.14-3.43,6C164,241,168.29,239.29,167.43,235ZM162,240s4.29-1.71,3.43-6C165.43,234,167.14,239.14,162,240Zm-2-1s5-2,4-7C164,232,166,238,160,239Zm-3,0s8-2,2-15C159,224,168,237,157,239Zm-11-15c8,6-8-6-14-21,0,0,8,14,16,20s3-11,0-16-10-17-12-25c0,0,5,11,11,21a115.67,115.67,0,0,1,11,24c2,6,4,14-12,10a14.39,14.39,0,0,0-2-3c-1-1-3-4,2,1,0,0,8,4,8-1s-3-3-8-8-15-18-17-27C129,199,138,218,146,224Zm-25-38c5,3,5,7,5,7-2-5-8-6-14-14s-10-6-14-9,.59-6,2-6c5,0,6,6,6,6C114,180,116,183,121,186ZM94.5,163.5c7.73-4.92,10.57-.51,11.54,2.22a4,4,0,0,1,.46,1.78,9.89,9.89,0,0,0-.46-1.78c-1.61-3.22-7.14-5.46-10.54-1.22-1.91,2.39-1.31,4.33-.16,5.69a21.76,21.76,0,0,0,3.16,2.31,9.68,9.68,0,0,1-3.16-2.31C93.2,168.28,91.28,165.55,94.5,163.5ZM99,183c-17-6-22-16-22-16C83,174,99,183,99,183Zm8,23c-18-6-28-24-28-24s10,15,25,21,22,8,33,24C137,227,125,212,107,206Zm35,48c-1.56-19.52-11.05-25.63-15.13-27.37C144.81,233.4,142,254,142,254Zm-15.2-27.39q-.87-.33-1.8-.61A10.64,10.64,0,0,1,126.8,226.61Zm-11.3-4.11s-14.5.5-20,3C95.5,225.5,107.5,219.5,115.5,222.5ZM104,226a25.07,25.07,0,0,1,15.73.11A26.9,26.9,0,0,1,132,233a36,36,0,0,0-12.27-6.89A26.74,26.74,0,0,0,104,227c-17,6-18-7-18-7S89,231,104,226ZM55,180c7,17,30,25,30,25C55,200,55,180,55,180Zm8.39,69.67c.5-12.89,11.87-20.4,21.28-27.34-.77.57.82,4.4,0,5-9.29,6.86-20.77,14.38-21.26,27.16C63.45,253.31,63.34,251.17,63.39,249.67Zm8,9.5c0,2.88-.05,2.79,0,0,0-4.73-.21-9.55,1.92-13.92a57.5,57.5,0,0,1,13.21-17.13c-.8.66.84,4.3,0,5-3.74,3.12-6.7,7.59-9.58,11.5C73.55,249.15,71.39,253.41,71.39,259.17Zm3.23-2.34c2-8.92,4.85-16.85,12.85-22-.37.24.39,2.24,0,2.5-8,5.19-10.84,13.11-12.85,22C74.8,258.54,74.44,257.62,74.62,256.83ZM89,242s-21,23-2,41C87,283,61,272,89,242Zm-.53,123.73a24,24,0,0,1-1,3.59,50.37,50.37,0,0,1-3.09,6.74,17.52,17.52,0,0,1-2,3.11,23.21,23.21,0,0,1-2.63,2.63,13.91,13.91,0,0,1-6.51,3.42,6.77,6.77,0,0,1-1.86,0,5.85,5.85,0,0,1-1.75-.6A7.48,7.48,0,0,1,67,382a7.45,7.45,0,0,0,2.6,2.56,5.78,5.78,0,0,0,1.73.57,6.67,6.67,0,0,0,1.82,0,13.73,13.73,0,0,0,6.36-3.48A22.93,22.93,0,0,0,82.07,379a17.17,17.17,0,0,0,2-3.09A49.94,49.94,0,0,0,87,369.15a23.43,23.43,0,0,0,.95-3.52,5.67,5.67,0,0,0-.2-3.42,1.62,1.62,0,0,0-1.24-.84,2.94,2.94,0,0,0-.84,0,2.79,2.79,0,0,0-.83.16,4.49,4.49,0,0,0-2.49,2.23,46.44,46.44,0,0,0-2.52,6.86,21.81,21.81,0,0,1-3.41,6.7l-.77-.64A20.92,20.92,0,0,0,79,370.33a46.47,46.47,0,0,1,2.7-6.95,5.2,5.2,0,0,1,2.94-2.51,3.41,3.41,0,0,1,1-.17,3.56,3.56,0,0,1,1,0,2.27,2.27,0,0,1,1.68,1.18A6.16,6.16,0,0,1,88.47,365.73Zm16.56-4.5c-2.61-23-5.65-47-20.21-65.91-.82-1.07.79-4,0-5,14.56,18.93,17.6,42.89,20.21,65.91C105.22,357.88,104.84,359.59,105,361.23ZM126,292.79a9.48,9.48,0,0,1-10.58.62,26.87,26.87,0,0,0-2.31-1.52,1.06,1.06,0,0,0-.57-.15c-.12,0-.17.23-.15.45a6,6,0,0,0,.3,1.32c.58,1.75,1.34,3.45,2.09,5.14l2.31,5.06c.39.84.78,1.69,1.12,2.56a9,9,0,0,1,.76,2.74.86.86,0,0,1-.11.43.47.47,0,0,1-.49.21,1.82,1.82,0,0,1-.7-.34,8.8,8.8,0,0,1-1.07-.94c-.66-.67-1.27-1.37-1.86-2.09-1.18-1.44-2.28-2.95-3.33-4.48a76.93,76.93,0,0,1-5.6-9.64c-.43-.82-.88-1.63-1.35-2.41a9.5,9.5,0,0,0-.76-1.11h0c0,.12,0,.25.05.37a45.36,45.36,0,0,0,1.64,5.27c.63,1.74,1.29,3.47,2,5.2s1.42,3.43,2,5.23a47,47,0,0,1,2,11,34.89,34.89,0,0,1-.09,5.62,14.12,14.12,0,0,1-.55,2.8,4.29,4.29,0,0,1-.69,1.36,1.5,1.5,0,0,1-.76.51,1.31,1.31,0,0,1-.94-.15,3.62,3.62,0,0,1-1.09-1.1,10.07,10.07,0,0,1-.72-1.25,24.29,24.29,0,0,1-1.09-2.61c-.63-1.77-1.14-3.56-1.61-5.37-.94-3.59-1.9-7.16-3.1-10.66a90.5,90.5,0,0,0-4.08-10.29c-.79-1.67-1.66-3.29-2.6-4.86a23.09,23.09,0,0,0-3.25-4.31l.65-.76a23.56,23.56,0,0,1,3.43,4.56c1,1.61,1.84,3.27,2.62,5a91.41,91.41,0,0,1,4.06,10.42c1.19,3.53,2.13,7.14,3.06,10.73.45,1.79.95,3.57,1.56,5.3a23.54,23.54,0,0,0,1,2.53,5.23,5.23,0,0,0,1.49,2c.3.16.5.11.77-.18a3.63,3.63,0,0,0,.56-1.11,13.44,13.44,0,0,0,.54-2.65,34.2,34.2,0,0,0,.11-5.5,46.34,46.34,0,0,0-1.88-10.87c-.52-1.76-1.25-3.46-1.92-5.2s-1.33-3.47-1.95-5.22a45.56,45.56,0,0,1-1.64-5.36,2.82,2.82,0,0,1-.06-.77.45.45,0,0,1,.18-.34.4.4,0,0,1,.45,0,1.51,1.51,0,0,1,.31.29,9.88,9.88,0,0,1,.81,1.18c.48.8.92,1.62,1.36,2.45a76.44,76.44,0,0,0,5.52,9.63c1,1.53,2.12,3,3.28,4.47.58.72,1.18,1.42,1.82,2.08a8.44,8.44,0,0,0,1,.9,1.54,1.54,0,0,0,.53.27c.09,0,.09,0,.12,0a.54.54,0,0,0,0-.24,8.92,8.92,0,0,0-.72-2.6c-.33-.86-.71-1.7-1.1-2.55l-2.29-5.08c-.74-1.71-1.49-3.4-2.07-5.18a6.2,6.2,0,0,1-.31-1.39,1.24,1.24,0,0,1,0-.39.47.47,0,0,1,.33-.33,1.25,1.25,0,0,1,.76.17,26.56,26.56,0,0,1,2.33,1.55,9.26,9.26,0,0,0,10.34-.56,10.92,10.92,0,0,0,3.38-4.3c.2-.42.4-.84.57-1.26a4.53,4.53,0,0,0,.22-.65c0-.21.08-.46-.06-.58a2.25,2.25,0,0,0-1.3.07l-1.35.33a26.31,26.31,0,0,1-5.51.79,9.66,9.66,0,0,1-2.78-.23,6.32,6.32,0,0,1-2.47-1.26,12.53,12.53,0,0,1-3.07-4.6,20.7,20.7,0,0,0-1.27-2.47A2.69,2.69,0,0,0,110,277a2.69,2.69,0,0,1,2.22,1.46,20.71,20.71,0,0,1,1.28,2.47,12.48,12.48,0,0,0,3.09,4.56,6.25,6.25,0,0,0,2.45,1.23,9.57,9.57,0,0,0,2.75.21,26.2,26.2,0,0,0,5.49-.82l1.35-.34c.23-.05.45-.1.69-.14a1.09,1.09,0,0,1,.73.08.73.73,0,0,1,.11.73,4.67,4.67,0,0,1-.22.67c-.17.43-.37.86-.57,1.28A11.09,11.09,0,0,1,126,292.79Zm133.33,78.07a3.8,3.8,0,0,1-1.33,1.7c-.28.21-.58.37-.86.56l-.91.43a20,20,0,0,1-3.77,1.08,45.21,45.21,0,0,1-7.71.73A60.62,60.62,0,0,1,237,375a33.89,33.89,0,0,1-7.6-1.63,12.84,12.84,0,0,1-1.81-.84c-.3-.16-.57-.38-.86-.57a4.25,4.25,0,0,1-.75-.79,2.84,2.84,0,0,1-.48-1.07l-.17-.93c-.13-.61-.27-1.22-.44-1.82a9.81,9.81,0,0,0-1.58-3.27,8.84,8.84,0,0,0-2.76-2.33,20.37,20.37,0,0,0-3.39-1.52,2.55,2.55,0,0,0-.79-.13.62.62,0,0,0-.24,0s0,0-.06.11a3.1,3.1,0,0,0,.36,1.53,25.25,25.25,0,0,0,1.83,3.28l1,1.6a3.94,3.94,0,0,1,.5,1,1.49,1.49,0,0,1,.06.69,1.11,1.11,0,0,1-.38.67,2.39,2.39,0,0,1-1.08.47,7.38,7.38,0,0,1-1,.13c-.66,0-1.31.05-2,.05-1.29,0-2.57-.06-3.84-.09-2.55-.1-5.09-.05-7.67-.13a23.86,23.86,0,0,1-7.67-1.28,7.36,7.36,0,0,1-3.21-2.4,8.57,8.57,0,0,1-1.47-3.71,16.21,16.21,0,0,0-1-3.58,10.87,10.87,0,0,0-.85-1.63,5.64,5.64,0,0,0-.54-.7,1.23,1.23,0,0,0-.55-.39c-.06,0,0,0-.09,0a.7.7,0,0,0-.13.26,3.47,3.47,0,0,0-.12.84,11.25,11.25,0,0,0,.11,1.84,32,32,0,0,1,.33,3.86,18.86,18.86,0,0,1-.29,3.89,12.48,12.48,0,0,1-1.24,3.73,11.19,11.19,0,0,1-5.76,5.2c-.62.21-1.22.48-1.85.64s-1.26.35-1.9.44a25.35,25.35,0,0,1-3.86.46,9.66,9.66,0,0,1-3.92-.54,3.66,3.66,0,0,1-1.66-1.27,3.52,3.52,0,0,1-.56-2c0-1.23-.15-2.54-1-3.23a2.51,2.51,0,0,0-1.59-.49,1.57,1.57,0,0,0-.37,0c-.09,0-.08,0-.08.06a1.53,1.53,0,0,0,.23.68c.28.54.64,1.09.93,1.68a3,3,0,0,1,.4,2.08,1.66,1.66,0,0,1-.71.93,3.22,3.22,0,0,1-1,.42,4.94,4.94,0,0,1-2,.1,22.82,22.82,0,0,1-7.19-2.89,73.19,73.19,0,0,1-6.47-4.18A99.29,99.29,0,0,1,137,358.39a26.5,26.5,0,0,1-7.4-13.36,13.61,13.61,0,0,1,.47-7.69c.06-.15.11-.31.18-.46l.25-.43a9,9,0,0,1,.51-.84,7.34,7.34,0,0,1,1.38-1.42,17.94,17.94,0,0,1,3.32-2,25.24,25.24,0,0,1,7.34-2.34,14.91,14.91,0,0,1,7.65.64,5.7,5.7,0,0,1,.89.41,5.19,5.19,0,0,1,.84.49,5.72,5.72,0,0,1,1.48,1.29,5.51,5.51,0,0,1,1,3.73,18.59,18.59,0,0,1-2.47,7.26c-.61,1.13-1.27,2.23-2,3.3s-1.49,2.1-2,3.23a4.7,4.7,0,0,0-.5,1.8c0,.28,0,.68.27.73s.47-.3.61-.55c.58-1.12,1.08-2.31,1.65-3.45s1.14-2.29,1.78-3.4a12.18,12.18,0,0,1,2.3-3.06,1.54,1.54,0,0,1,.87-.4.89.89,0,0,1,.79.49,4.94,4.94,0,0,1,.56,1.83A26.56,26.56,0,0,1,157,348a26.54,26.54,0,0,0-.25-3.82,4.91,4.91,0,0,0-.57-1.81.84.84,0,0,0-.75-.47,1.48,1.48,0,0,0-.83.39,12.12,12.12,0,0,0-2.26,3.06c-.63,1.11-1.21,2.25-1.75,3.4s-1,2.33-1.63,3.48c-.17.26-.34.62-.77.63a.48.48,0,0,1-.36-.39,1.5,1.5,0,0,1-.06-.5,4.86,4.86,0,0,1,.5-1.87c.57-1.17,1.37-2.17,2-3.26s1.34-2.17,1.93-3.3a18.35,18.35,0,0,0,2.38-7.16,5.2,5.2,0,0,0-1-3.51,5.39,5.39,0,0,0-1.41-1.2,4.91,4.91,0,0,0-.81-.47,5.42,5.42,0,0,0-.86-.39,14.53,14.53,0,0,0-7.45-.56,24.78,24.78,0,0,0-7.19,2.35,18.19,18.19,0,0,0-3.22,2,6.84,6.84,0,0,0-1.28,1.32,8.52,8.52,0,0,0-.48.79l-.23.4c-.06.14-.11.29-.17.43a13.09,13.09,0,0,0-.42,7.4A26,26,0,0,0,137.4,358a98.73,98.73,0,0,0,11.72,9.79,72.56,72.56,0,0,0,6.42,4.12,22.31,22.31,0,0,0,7,2.79,4.25,4.25,0,0,0,1.77-.09c.57-.15,1.1-.44,1.21-.89a2.45,2.45,0,0,0-.36-1.59c-.27-.55-.62-1.08-.93-1.67a1.9,1.9,0,0,1-.29-1.13.79.79,0,0,1,.55-.58,2.15,2.15,0,0,1,.58-.07,3.19,3.19,0,0,1,2,.63,3.26,3.26,0,0,1,1.11,1.79,7.41,7.41,0,0,1,.21,2,2.8,2.8,0,0,0,.45,1.62,3,3,0,0,0,1.35,1,9,9,0,0,0,3.62.47,23.17,23.17,0,0,0,7.34-1.5,11.56,11.56,0,0,0,3.13-2,10.77,10.77,0,0,0,1.27-1.33,11.38,11.38,0,0,0,1-1.57,11.72,11.72,0,0,0,1.15-3.52,18.09,18.09,0,0,0,.27-3.74,31.25,31.25,0,0,0-.33-3.77,12,12,0,0,1-.12-2,4.2,4.2,0,0,1,.16-1.05,1.46,1.46,0,0,1,.33-.57.87.87,0,0,1,.77-.27,1.89,1.89,0,0,1,1,.63,6.41,6.41,0,0,1,.63.81,11.65,11.65,0,0,1,.93,1.76,17,17,0,0,1,1.1,3.76,7.74,7.74,0,0,0,1.33,3.35,6.51,6.51,0,0,0,2.86,2.11,23.13,23.13,0,0,0,7.38,1.19c1.33,0,2.67,0,4,.05-.17-3.21-3-8-3-8,4,4.26,4.78,7.07,5,8.06h0c-.2-3.29-4-9.6-4-9.6a25.18,25.18,0,0,1,5.9,9.63H212c-.18-3.28-4-9.63-4-9.63a25.08,25.08,0,0,1,5.91,9.67H214c-.15-3.27-4-9.68-4-9.68a25,25,0,0,1,5.92,9.7H216c-.13-3.26-4-9.7-4-9.7,4.52,4.86,4.88,8.93,4.91,9.67l.42,0a3.3,3.3,0,0,0,1.55-.38c.1-.1.11-.16.05-.4a3.14,3.14,0,0,0-.4-.73l-1.06-1.61a26,26,0,0,1-1.91-3.41,7.78,7.78,0,0,1-.35-1,2.33,2.33,0,0,1-.06-1.19,1.13,1.13,0,0,1,.48-.65,1.47,1.47,0,0,1,.68-.18,3.41,3.41,0,0,1,1.09.17,21.05,21.05,0,0,1,3.6,1.6,9.8,9.8,0,0,1,3.06,2.57,10.78,10.78,0,0,1,1.75,3.58c.19.63.34,1.27.47,1.9l.18,1a1.89,1.89,0,0,0,.31.66c.11.23.38.39.56.59s.47.35.74.49a11.88,11.88,0,0,0,1.66.76,30.55,30.55,0,0,0,6.18,1.43C235.56,369.7,233,364,233,364c3.61,5.06,4.61,8.54,4.89,10.09H238c-.4-4.37-4-12.1-4-12.1a36.45,36.45,0,0,1,5.84,12.25H240c-.32-4.33-4-12.26-4-12.26a36.35,36.35,0,0,1,5.86,12.36H242c-.26-4.31-4-12.36-4-12.36a36.32,36.32,0,0,1,5.87,12.39h.1c-.25-4.3-4-12.39-4-12.39,4.27,6,4.83,11,4.9,12.39q1.58,0,3.16-.15C248.32,366.78,239,350,239,350a58.49,58.49,0,0,1,9.9,24.16L250,374l0,0c-1-7-6-19-6-19,3.13,4.7,5.81,13.59,6.82,17.22C249.05,361.27,241,344,241,344c4.11,7,7.33,16.13,9.28,22.43-1.45-7-4.2-17.51-10.28-25.43,0,0,5.69,7,10,20.38A81.76,81.76,0,0,0,240,338s12,15,15,35c-3-21-16-39-16-39,10.94,12.76,17.72,33.83,18.83,37.45a2.61,2.61,0,0,0,.6-.89,1.49,1.49,0,0,0,.07-.37l0-.19,0-.22-.1-.9a15.37,15.37,0,0,0-.39-1.82c-.12-.61-.35-1.21-.53-1.81s-.37-1.21-.6-1.8c-.44-1.19-.87-2.39-1.37-3.56s-1-2.35-1.49-3.52c-2.06-4.66-4.34-9.23-6.76-13.72s-5-8.9-7.84-13.12l-1.07-1.58-1.13-1.53c-.73-1-1.57-2-2.37-3-1.69-1.92-3.38-3.84-5.1-5.72a75.14,75.14,0,0,0-5.42-5.36,43.63,43.63,0,0,0-6.12-4.5,43,43,0,0,0-14.16-5.34l-1.87-.37-1.89-.25-1.89-.25c-.63-.06-1.27-.1-1.9-.14a48.18,48.18,0,0,0-7.62,0,73.28,73.28,0,0,1-7.7.23,9.71,9.71,0,0,1-1.95-.31,3,3,0,0,1-1-.41,3.74,3.74,0,0,1-.75-.73,13.39,13.39,0,0,1-1.65-3.55,16.89,16.89,0,0,0-1.47-3.45,1.86,1.86,0,0,0-1.29-1c-.55,0-1.25.07-1.87.1-2.54.19-5.1.37-7.6.75-.31.05-.62.11-.92.18l-.4.11h0l.44.11c.3.06.62.11.93.15a27.32,27.32,0,0,1,3.8.72,13.65,13.65,0,0,1,3.59,1.51,12.9,12.9,0,0,1,2.93,2.56,24.76,24.76,0,0,0,2.6,2.74,6.32,6.32,0,0,0,3.53.93c2.53.05,5.07-.34,7.63-.46a37.19,37.19,0,0,1,3.85,0c1.29,0,2.56.23,3.83.35,2.54.25,5.1.42,7.63.82A35.33,35.33,0,0,1,217.42,308,36.8,36.8,0,0,1,228,319a36.74,36.74,0,0,0-10.65-10.86,35.14,35.14,0,0,0-14.3-5.08c-2.52-.37-5.07-.53-7.62-.76-1.28-.12-2.54-.3-3.81-.32a36.82,36.82,0,0,0-3.81.07c-2.54.14-5.07.55-7.66.52a6.73,6.73,0,0,1-3.78-1,24.48,24.48,0,0,1-2.69-2.79,12.7,12.7,0,0,0-2.83-2.45,13.14,13.14,0,0,0-3.46-1.44,26.81,26.81,0,0,0-3.73-.69c-.32,0-.64-.09-1-.16-.16,0-.32-.07-.49-.12l-.26-.09a.55.55,0,0,1-.32-.31.38.38,0,0,1,.09-.37.72.72,0,0,1,.16-.12,1.6,1.6,0,0,1,.26-.12,4.9,4.9,0,0,1,.49-.14c.32-.08.64-.13,1-.19,2.55-.39,5.1-.58,7.65-.78.66,0,1.24-.11,2-.1a2.41,2.41,0,0,1,1.72,1.19,17.23,17.23,0,0,1,1.54,3.58,13,13,0,0,0,1.57,3.38,2.3,2.3,0,0,0,1.41.93,9.13,9.13,0,0,0,1.83.29,73.14,73.14,0,0,0,7.62-.25,48.81,48.81,0,0,1,7.7,0c.64,0,1.28.08,1.92.14l1.91.25,1.91.25,1.89.37a43.65,43.65,0,0,1,14.39,5.39,44.35,44.35,0,0,1,6.23,4.55,75.87,75.87,0,0,1,5.49,5.41c1.73,1.89,3.42,3.8,5.12,5.71.82,1,1.68,2,2.42,3l1.15,1.55,1.09,1.59c2.88,4.25,5.47,8.68,7.92,13.17s4.74,9.08,6.83,13.76c.53,1.17,1,2.34,1.51,3.54s.95,2.39,1.39,3.59c.24.6.42,1.22.62,1.83s.42,1.22.55,1.86a16.17,16.17,0,0,1,.41,1.92A4.87,4.87,0,0,1,259.31,370.86Z" style="stroke:#fff;stroke-miterlimit:10;stroke-width:0.5px"/><path d="M63.22,352.55a9,9,0,0,0,8.74-.63c2.15-1.33,3.54-3.26,3.54-4.92,0-3.63-6.67-8.5-13.5-8.5-5.74,0-13.74,7.84-16,10.17v5.05a10.84,10.84,0,0,1,6.82-3.1A19.45,19.45,0,0,1,63.22,352.55Z" style="stroke:#fff;stroke-miterlimit:10;stroke-width:0.5px"/><path d="M54.37,146.06a21.48,21.48,0,0,1,5.75-1.36,23,23,0,0,1,3-.13c1,0,2,.15,2.93.22a6.33,6.33,0,0,0,3.5-.91,9.22,9.22,0,0,0,2.43-2.76l.52-.8a3.33,3.33,0,0,1,.64-.82,6.22,6.22,0,0,1,1.83-.8,24,24,0,0,1,3.79-.69,57.72,57.72,0,0,1,15.27.69,68.47,68.47,0,0,1,39.64,21.74c3.43,3.81,6.55,7.84,9.59,11.92,6.06,8.18,11.71,16.62,17.66,24.82a197.78,197.78,0,0,0,19.2,23.34c7,7.1,15.12,13.34,24.36,16.8a45.82,45.82,0,0,0,14.35,2.92c2.41.14,5,0,7.49,0,1.26,0,2.51-.12,3.77-.17s2.51-.11,3.76-.23a107.58,107.58,0,0,0,14.81-2c1.21-.25,2.4-.59,3.59-.88s2.35-.69,3.47-1.13q.86-.29,1.67-.66c.56-.22,1.09-.48,1.6-.75a13.17,13.17,0,0,0,1.26-.71L52.06,25.47a3.44,3.44,0,0,0-2.48-1A3.53,3.53,0,0,0,46,28V151.74a22.14,22.14,0,0,1,8.37-5.68Z" style="stroke:#fff;stroke-miterlimit:10;stroke-width:0.5px"/><path d="M255,373h0Z" style="stroke:#fff;stroke-miterlimit:10;stroke-width:0.5px"/><path d="M318.25,163.22C313,124.72,282,97,282,97c24.55,19.78,34.22,48.39,37.88,64.59l1.85-1.85c-6.36-33.14-25.28-55.36-43.79-69.67A143.12,143.12,0,0,1,299,106c-21.28-22.57-41.71-31.41-53.55-34.84a97.23,97.23,0,0,0-10-3.66c64.2,10.3,87.56,62.69,94.49,84l1.64-1.64C329.58,142.75,326,133.14,320,125c0,0,5.35,4.59,12.71,23.77l1.29-1.29a141.56,141.56,0,0,0-14.06-27.4,146.27,146.27,0,0,0-25.84-29.87c-9.93-8.65-21.23-15.87-33.65-20.17l-2.33-.8-2.37-.66-2.37-.65-2.4-.51c-.8-.16-1.6-.35-2.41-.5l-2.45-.41-4.9-.81c-3.27-.52-6.55-1-9.83-1.42s-6.56-.83-9.86-1.09c-6.58-.65-13.18-1-19.77-1-1.65,0-3.29.06-4.94.09s-3.12.14-4.66.29a142.53,142.53,0,0,1,20.49,3.67A120.89,120.89,0,0,1,241.4,77.73c1.12.64,2.28,1.24,3.37,1.93l3.28,2.08,1.64,1,1.58,1.13,3.16,2.26a118.47,118.47,0,0,1,11.74,10.18,123.08,123.08,0,0,1,19.11,24.42,143.61,143.61,0,0,1,7.16,13.79,137.51,137.51,0,0,1,5.47,14.55,113.3,113.3,0,0,1,3.64,15.14,81.37,81.37,0,0,1,1.23,14.42ZM295,115s9,9,16,29C311,144,301,123,295,115Z"/><path d="M431.33,35H99.42A6.29,6.29,0,0,0,95,45.7l166,166a6.29,6.29,0,0,0,8.9,0L299,182.49c.08-.91.15-1.82.19-2.73a75,75,0,0,0-1.06-14.93,109.86,109.86,0,0,0-3.44-14.71,134.19,134.19,0,0,0-5.24-14.21,140.39,140.39,0,0,0-6.9-13.49,120,120,0,0,0-18.48-23.93,115.54,115.54,0,0,0-11.38-10l-3.07-2.22-1.53-1.11-1.59-1-3.19-2.05c-1.07-.68-2.19-1.26-3.28-1.9a118.18,118.18,0,0,0-28-11.42,145.71,145.71,0,0,0-30-4.55l-6.82-.34,6.47-2a23.66,23.66,0,0,1,2.58-.63c.84-.17,1.68-.3,2.51-.43q2.51-.36,5-.55c1.68-.16,3.35-.19,5-.29s3.35-.08,5-.06c6.69,0,13.35.45,20,1.15,3.32.28,6.62.78,9.92,1.16s6.59.94,9.87,1.49l4.92.85,2.46.42c.82.15,1.64.35,2.46.52l2.46.54,2.42.68,2.42.7,2.38.83c12.68,4.49,24.11,11.91,34.1,20.73a147.75,147.75,0,0,1,25.91,30.34,143.13,143.13,0,0,1,13.83,27.24L435.78,45.7A6.29,6.29,0,0,0,431.33,35Z"/></g></svg>