<svg version="1.1" id="Layer_1" xmlns="http://www.w3.org/2000/svg" xmlns:xlink="http://www.w3.org/1999/xlink" x="0px" y="0px"
	 viewBox="0 0 1000 1000" style="enable-background:new 0 0 1000 1000;" xml:space="preserve">


<defs>
</defs>
	<g clip-path="translate(0.000000,511.000000) scale(0.100000,-0.100000)">
		<path d="st0" d="M2084.9,4143.1c-249.9-81.8-425.1-240.6-810.6-740.5c-135.5-175.2-264-324.7-285-334
			c-72.4-28-271-14-352.7,25.7c-86.4,39.7-179.9,163.5-205.6,268.6c-23.4,88.8,25.7,219.6,119.1,322.4
			c114.5,126.1,280.3,189.2,541.9,210.2c116.8,9.3,221.9,23.4,228.9,30.4c32.7,32.7-128.5,70.1-343.4,79.4
			c-296.7,16.3-418.1-23.4-605-196.2c-242.9-224.2-327-483.5-238.3-735.8c105.1-301.3,313-474.2,595.7-502.2l151.8-14l-79.4-114.5
			c-44.4-65.4-79.4-130.8-79.4-147.2s37.4-63.1,81.8-102.8c67.7-58.4,102.8-72.4,193.9-72.4c130.8,0,509.2,114.4,654.1,196.2
			l98.1,58.4v-149.5c0-81.8,11.7-156.5,23.4-163.5c14-9.4,51.4-56.1,81.8-105.1c32.7-49.1,95.8-109.8,142.5-130.8
			c93.4-44.4,126.1-102.8,198.6-359.7c95.8-334,98.1-387.8,21-656.4c-81.8-282.6-86.4-366.7-25.7-537.3
			c23.4-70.1,60.7-214.9,81.8-324.7c46.7-231.3,79.4-310.7,200.9-513.9c84.1-140.2,93.4-172.9,114.5-408.8
			c14-140.2,46.7-322.4,72.4-404.1c46.7-149.5,65.4-352.7,37.4-439.2c-7-28,7-179.8,32.7-338.7c25.7-158.8,46.7-352.7,46.7-432.1
			c0-163.5-65.4-378.4-151.8-490.5c-32.7-42-65.4-109.8-72.4-149.5c-9.3-39.7-39.7-91.1-70.1-114.5
			c-44.4-35-242.9-371.4-242.9-411.1c0-7,25.7-11.7,56.1-11.7c30.4,0,67.7-16.4,84.1-35c35-42,245.3-46.7,378.4-11.7
			c88.8,25.7,149.5,95.8,128.5,151.8c-18.7,46.7,53.7,137.8,84.1,107.4c14-14,46.7-25.7,70.1-25.7c49.1,0,49.1,0-18.7,254.6
			c-65.4,245.3-7,593.3,158.8,948.4c93.4,203.2,98.1,219.6,95.8,432.1c0,121.5-4.7,280.3-9.3,350.4c-4.7,86.4,9.3,184.5,44.4,299
			c63.1,198.6,107.5,224.2,245.3,142.5c60.7-35,107.5-46.7,154.2-35c58.4,11.7,70.1,4.7,70.1-35c0-135.5-74.8-705.4-109.8-822.2
			c-37.4-133.2-37.4-142.5,11.7-331.7c79.4-303.7,58.4-565.3-67.7-801.2c-37.4-70.1-67.7-151.8-67.7-182.2s-32.7-91.1-70.1-135.5
			c-72.4-79.4-186.9-313-186.9-376.1c0-18.7,18.7-37.4,42-37.4c44.4-4.7,91.1-11.7,214.9-32.7c44.4-7,133.2,0,196.2,16.4
			c149.5,39.7,212.6,119.1,203.2,264c-2.3,79.4,4.7,109.8,35,121.5c21,7,46.7,0,56.1-16.4c9.3-16.4,35-23.4,56.1-16.4
			c49.1,18.7,49.1,140.2,0,327c-70.1,268.6-35,651.7,72.4,819.9c16.4,28,49.1,133.2,70.1,235.9c21,102.8,53.7,249.9,72.4,327
			c39.7,147.2,240.6,787.2,254.6,801.2c2.3,4.7,147.2-9.4,317.7-28c172.9-21,425.1-37.4,560.6-37.4s310.7-7,390.1-14
			c126.2-14,144.8-23.4,168.2-79.4c14-35,51.4-74.8,84.1-88.8c46.7-23.4,56.1-44.4,56.1-133.2c0-60.7,11.7-130.8,28-158.8
			c28-49.1,30.4-46.7,44.4,42c42.1,240.6,53.8,282.6,88.8,317.7c21,18.7,88.8,100.4,151.8,177.5c88.8,109.8,158.8,165.8,301.3,242.9
			l186.9,98.1l39.7-49c21-25.7,79.4-156.5,128.5-289.7s151.8-371.4,226.6-532.6c161.2-336.4,179.9-443.8,137.8-794.2
			c-30.4-242.9-144.8-644.7-219.6-768.5c-25.7-42-123.8-128.5-217.2-189.2c-93.4-60.7-228.9-175.2-303.7-254.6
			c-175.2-189.2-156.5-210.2,170.5-228.9c203.2-11.7,245.3-7,343.4,35c63.1,28,116.8,70.1,123.8,95.8c11.7,42,98.1,95.8,156.5,95.8
			c18.7,0,39.7-18.7,49.1-39.7c14-39.7,16.4-39.7,49,2.4c21,32.7,32.7,109.8,32.7,240.6c0,238.2,58.4,429.8,352.7,1168
			c114.5,285,207.9,534.9,207.9,555.9s-21,79.4-46.7,130.8c-128.5,252.3-189.2,453.2-214.9,728.8c-14,149.5-21,280.3-11.7,287.3
			c28,28,114.5-44.4,263.9-219.6c168.2-196.2,271-380.8,315.4-556c16.4-63.1,72.4-186.9,126.2-278
			c133.1-221.9,214.9-432.1,306-801.2c70.1-278,79.4-348.1,79.4-621.4c0-299-2.3-313-58.4-373.8c-30.4-32.7-84.1-137.8-119.1-231.2
			c-98.1-271-98.1-266.3,4.6-294.3c266.3-74.7,506.9,21,537.3,212.6c14,84.1,18.7,86.4,56.1,53.7c53.7-46.7,70.1-44.4,70.1,16.4
			c0,70.1-60.7,376.1-140.2,707.8c-81.8,338.7-105.1,752.2-67.8,1193.7c28,357.4,18.7,420.5-74.7,537.3
			C9081-974.9,9039-848.8,9001.6-454c-18.7,200.9-44.4,740.5-53.8,1196c-11.7,551.3-28,852.6-46.7,897
			c-70.1,172.9,42.1,37.4,156.5-184.5c49.1-98.1,144.8-434.5,191.6-677.4c39.7-196.2,123.8-341.1,282.6-478.9
			c165.9-144.8,175.2-198.5,53.8-299c-84.1-70.1-147.2-200.9-147.2-308.3c0-32.7,18.7-100.4,44.4-151.8s39.7-72.4,32.7-46.7
			c-53.8,163.5-30.4,238.3,114.4,362.1l93.4,81.8l-60.7-107.5c-98.1-168.2-72.4-439.2,58.4-626c35-49,35-46.7,25.7,53.7
			c-9.3,74.8,4.7,151.8,46.7,275.7c67.8,198.6,121.5,523.2,102.8,637.7c-25.7,158.8-88.8,247.6-249.9,350.4
			c-86.4,56-177.5,128.5-205.6,163.5c-28,35-93.4,200.9-144.8,369.1c-149.5,478.9-329.4,761.5-728.8,1151.6
			c-245.3,238.3-754.5,602.7-1020.8,731.1c-170.5,79.4-189.2,84.1-422.8,84.1c-219.6-2.4-287.3-14-630.7-109.8
			c-441.5-123.8-1200.7-275.6-1368.8-275.6c-63.1,0-165.9,14-228.9,30.4l-112.1,30.4l137.8,86.4c378.4,231.3,495.2,532.6,341,864.3
			c-133.1,280.3-324.7,432.1-614.3,483.5c-156.5,30.4-348.1,9.3-357.4-35c-2.3-11.7,70.1-42,158.8-65.4
			c350.4-91.1,502.2-219.6,520.9-448.5c14-163.5-39.7-310.7-144.8-404.1c-93.4-81.8-289.6-114.5-441.5-72.4
			c-175.2,46.7-502.2,294.3-911,689.1c-271,261.6-294.3,278-457.8,329.4c-184.5,58.4-324.7,56-448.5-7
			c-53.7-25.7-72.4-25.7-128.5,2.3C2334.9,4168.8,2192.4,4178.1,2084.9,4143.1z"/>
	</g>

</svg>
